<svg width="150" height="48" viewBox="0 0 150 48" fill="none" xmlns="http://www.w3.org/2000/svg">
<path d="M23.7844 0C25.0068 0 26.1217 0.696158 26.6659 1.79805L36.6801 22.0017L47.2292 43.2925C47.7296 44.3007 47.6765 45.4964 47.0886 46.4563C46.5404 47.3507 45.602 47.9197 44.5694 47.992L44.3477 48L23.7831 43.8749L10.8887 22.003L20.9029 1.79944C21.4471 0.697547 22.562 0.0013075 23.7831 0.0013075L23.7844 0Z" fill="#DABAA2"/>
<path d="M23.7843 0C25.0054 0 26.1217 0.696158 26.6658 1.79805L36.68 22.0017L23.7843 43.8736L3.22101 47.9987C2.10478 47.9987 1.06818 47.415 0.480201 46.4563C-0.106451 45.4977 -0.158238 44.3007 0.339487 43.2925L10.8899 22.0017L20.9042 1.79805C21.4484 0.696158 22.5632 0 23.7843 0Z" fill="url(#paint0_linear_172_3240)"/>
<path d="M23.784 0C25.0064 0 26.1214 0.696158 26.6656 1.79805L36.6798 22.0017L23.784 43.8736L10.8896 22.0017L20.9039 1.79805C21.4136 0.76444 22.4276 0.088341 23.5558 0.00800842L23.784 0Z" fill="url(#paint1_linear_172_3240)"/>
<path d="M75.9408 11.2227H81.8232L91.2428 36.5837H86.0253L84.0291 31.1438H73.6645L71.6683 36.5837H66.5557L75.9394 11.2227H75.9408ZM78.813 16.9798L75.2771 26.7282H82.3846L78.813 16.9798ZM93.7593 31.7437V22.1358H91.3079V18.0028H93.7593V12.7048H98.5919V18.0028H102.339V22.1358H98.5919V30.7194C98.5919 32.3086 99.4679 32.5202 100.903 32.5202C101.603 32.5202 101.953 32.4854 102.583 32.4144V36.5114C101.707 36.6881 100.657 36.7939 99.432 36.7939C95.721 36.7939 93.7593 35.5581 93.7593 31.7423V31.7437ZM110.787 11.2227V36.5837H105.885V11.2227H110.787ZM130.067 32.0262C130.067 33.6154 130.137 35.2047 130.347 36.5824H125.62C125.586 36.1231 125.55 35.629 125.55 35.0989C124.359 36.265 122.574 36.8997 120.333 36.8997C116.726 36.8997 114.029 34.7092 114.029 31.425C114.029 27.7163 116.936 26.1619 120.682 25.4911L125.269 24.6074V23.7947C125.269 22.3113 124.288 21.7115 122.537 21.7115C120.541 21.7115 119.701 22.5241 119.596 24.0076H114.834C115.009 19.7339 118.23 17.6492 122.781 17.6492C127.334 17.6492 130.064 19.592 130.064 23.1588V32.0248L130.067 32.0262ZM125.27 29.9776V28.0698L121.698 28.7767C120.052 29.094 118.862 29.6242 118.862 31.1076C118.862 32.4144 119.807 33.1213 121.278 33.1213C123.343 33.1213 125.269 32.0623 125.269 29.9776H125.27ZM132.546 33.44L135.592 30.2963C136.853 32.0275 139.093 33.1213 141.16 33.1213C142.806 33.1213 144.242 32.5564 144.242 31.2135C144.242 29.8009 142.876 29.6242 139.935 29.0592C136.959 28.4594 133.668 27.6815 133.668 23.6903C133.668 20.1235 136.784 17.6506 141.196 17.6506C144.452 17.6506 147.358 18.9922 148.794 20.8653L145.994 23.9741C144.769 22.3849 142.982 21.5012 141.056 21.5012C139.515 21.5012 138.5 22.172 138.5 23.1962C138.5 24.3972 139.725 24.6087 142.001 25.068C145.223 25.7388 149.04 26.4805 149.04 30.6846C149.04 34.57 145.468 36.9719 141.056 36.9719C137.73 36.9719 134.229 35.7361 132.547 33.44H132.546Z" fill="#DABAA2"/>
<defs>
<linearGradient id="paint0_linear_172_3240" x1="18.3877" y1="21.7741" x2="18.2783" y2="47.9987" gradientUnits="userSpaceOnUse">
<stop stop-color="#DABAA2"/>
<stop offset="0.536" stop-color="#DABAA2"/>
<stop offset="1" stop-color="#DABAA2"/>
</linearGradient>
<linearGradient id="paint1_linear_172_3240" x1="23.7854" y1="42.3353" x2="23.7854" y2="18.0855" gradientUnits="userSpaceOnUse">
<stop stop-color="#DABAA2" stop-opacity="0"/>
<stop offset="1" stop-color="#DABAA2"/>
</linearGradient>
</defs>
</svg>
