<svg width="116.769" height="37.4478" overflow="visible" style="display: block;" viewBox="0 0 116.769 37.4478" fill="none" xmlns="http://www.w3.org/2000/svg">
<g id="Canva Logo">
<path id="Vector" d="M115.957 25.5958C115.759 25.5958 115.578 25.7242 115.485 25.9928C114.288 29.4083 112.67 31.44 111.339 31.44C110.574 31.44 110.265 30.5876 110.265 29.2506C110.265 25.9052 112.268 18.8115 113.278 15.577C113.394 15.1858 113.47 14.8355 113.47 14.5377C113.47 13.5977 112.956 13.1365 111.684 13.1365C110.312 13.1365 108.835 13.6736 107.398 16.19C106.902 13.9714 105.402 13.0022 103.306 13.0022C100.883 13.0022 98.5413 14.5611 96.6146 17.0891C94.688 19.6172 92.4226 20.4462 90.7178 20.0376C91.9439 17.0366 92.3993 14.7946 92.3993 13.1307C92.3993 10.5209 91.109 8.9445 89.0247 8.9445C85.8544 8.9445 84.027 11.9688 84.027 15.1508C84.027 17.6088 85.1421 20.1368 87.5942 21.3629C85.5391 26.0103 82.5381 30.214 81.3997 30.214C79.9284 30.214 79.4963 23.0152 79.5781 17.8657C79.6306 14.9114 79.8758 14.7596 79.8758 13.8663C79.8758 13.3525 79.543 13.0022 78.206 13.0022C75.0883 13.0022 74.1249 15.6412 73.979 18.6714C73.9319 19.8229 73.7516 20.9651 73.4418 22.0752C72.1399 26.7226 69.4542 30.249 67.7026 30.249C66.8911 30.249 66.6692 29.4375 66.6692 28.3749C66.6692 25.0294 68.5434 20.8491 68.5434 17.2818C68.5434 14.6603 67.3932 13.0022 65.2271 13.0022C62.6757 13.0022 59.3011 16.0382 56.1075 21.7249C57.1584 17.3694 57.5905 13.154 54.4786 13.154C53.8035 13.1641 53.1407 13.3363 52.546 13.6561C52.3464 13.7495 52.1795 13.9008 52.067 14.0903C51.9546 14.2798 51.9018 14.4988 51.9155 14.7187C52.2132 19.3545 48.1789 31.2299 44.3547 31.2299C43.6599 31.2299 43.3213 30.4767 43.3213 29.2623C43.3213 25.911 45.318 18.8348 46.3223 15.5945C46.4507 15.1741 46.5208 14.8121 46.5208 14.4969C46.5208 13.6094 45.9719 13.154 44.7284 13.154C43.3622 13.154 41.8792 13.6736 40.4488 16.19C39.9467 13.9714 38.4462 13.0022 36.3502 13.0022C32.9113 13.0022 29.0696 16.6396 27.3823 21.3804C25.1228 27.7093 20.5689 33.8221 14.4385 33.8221C8.87444 33.8221 5.9377 29.1922 5.9377 21.8767C5.9377 11.3149 13.6912 2.68569 19.442 2.68569C22.1919 2.68569 23.5056 4.43722 23.5056 7.12291C23.5056 10.3749 21.6898 11.8871 21.6898 13.1248C21.6898 13.5043 22.0051 13.878 22.6298 13.878C25.1287 13.878 28.0713 10.9413 28.0713 6.93608C28.0713 2.9309 24.8192 0 19.0684 0C9.56338 0 0 9.56338 0 21.8183C0 31.5685 4.81088 37.4478 13.1307 37.4478C18.8056 37.4478 23.7625 33.0339 26.4365 27.8844C26.7401 32.1523 28.6785 34.3826 31.6327 34.3826C34.26 34.3826 36.3852 32.8179 38.0083 30.068C38.633 32.9464 40.2911 34.3534 42.4455 34.3534C44.9152 34.3534 46.982 32.7887 48.9496 29.8812C48.9204 32.164 49.44 34.3126 51.4192 34.3126C52.3534 34.3126 53.4685 34.0965 53.667 33.2792C55.7513 24.6616 60.9009 17.6263 62.4772 17.6263C62.9443 17.6263 63.0728 18.0758 63.0728 18.6071C63.0728 20.9484 61.4205 25.7476 61.4205 28.8127C61.4205 32.1231 62.8275 34.3126 65.7351 34.3126C68.9579 34.3126 72.2333 30.3658 74.4169 24.5974C75.1 29.9863 76.5771 34.3359 78.8891 34.3359C81.7266 34.3359 86.7652 28.3632 89.8187 22.0401C91.0156 22.1919 92.8138 22.1511 94.542 20.9308C93.8064 22.7933 93.3743 24.8309 93.3743 26.8685C93.3743 32.7362 96.1768 34.3826 98.588 34.3826C101.21 34.3826 103.335 32.8179 104.964 30.068C105.501 32.5493 106.873 34.3476 109.395 34.3476C113.342 34.3476 116.769 30.3132 116.769 27.0028C116.769 26.1271 116.395 25.5958 115.957 25.5958ZM34.0382 31.1306C32.4443 31.1306 31.8195 29.525 31.8195 27.1313C31.8195 22.9743 34.6629 16.0324 37.6697 16.0324C38.9833 16.0324 39.4796 17.5796 39.4796 19.4712C39.4796 23.6924 36.7764 31.1306 34.0382 31.1306ZM88.6335 18.7239C87.6818 17.5912 87.3373 16.0499 87.3373 14.6779C87.3373 12.9847 87.9562 11.5543 88.6977 11.5543C89.4392 11.5543 89.6669 12.2841 89.6669 13.3C89.6669 14.999 89.0597 17.4803 88.6335 18.7239ZM100.993 31.1306C99.3996 31.1306 98.7749 29.2857 98.7749 27.1313C98.7749 23.1203 101.618 16.0324 104.648 16.0324C105.962 16.0324 106.429 17.5679 106.429 19.4712C106.429 23.6924 103.773 31.1306 100.993 31.1306Z" fill="url(#paint0_radial_0_194)"/>
</g>
<defs>
<radialGradient id="paint0_radial_0_194" cx="0" cy="0" r="1" gradientUnits="userSpaceOnUse" gradientTransform="translate(7.94577 7.71094) rotate(12.4319) scale(109.124 163.252)">
<stop offset="0.0975956" stop-color="#02C1CC"/>
<stop offset="0.583861" stop-color="#3970E3"/>
<stop offset="1" stop-color="#7D2AE7"/>
</radialGradient>
</defs>
</svg>
