<svg width="203" height="55" viewBox="0 0 203 55" fill="none" xmlns="http://www.w3.org/2000/svg" xmlns:xlink="http://www.w3.org/1999/xlink">
<g clip-path="url(#clip0_271_2533)">
<path d="M78.7089 14.3889C78.7599 14.3889 78.8119 14.3889 78.8629 14.3889C83.6889 14.3939 87.6549 17.2429 87.6549 20.7289C87.6549 22.2859 86.4739 23.5209 84.9709 23.5209C82.8229 23.5209 81.8029 22.0179 82.2329 19.5479H83.8969C83.6879 17.8279 81.3749 16.1759 78.8639 16.1089C78.8639 16.1089 78.7909 16.1089 78.7829 16.1089C74.0239 16.1089 70.8389 20.6479 70.8389 27.4209C70.8389 34.1569 74.2799 38.7699 79.3319 38.7699C83.0659 38.7699 85.7389 37.0129 88.1549 32.9489L88.3009 33.0219C86.8729 37.7809 83.1759 40.7459 78.6359 40.7459C71.7169 40.7459 66.5549 35.2909 66.5549 27.9329C66.5549 20.2449 71.8269 14.3879 78.7089 14.3879V14.3889Z" fill="black"/>
<path d="M94.2289 26.1119C95.9129 23.9629 97.9449 22.7729 99.9769 22.7729C103.162 22.7729 105.029 24.7859 105.029 28.2279V36.9039C105.029 38.4049 105.725 39.2099 107.152 39.3569L107.921 39.4299V40.3819H99.0619V39.4299L99.7209 39.3569C101.039 39.2109 101.661 38.4049 101.661 36.9039V28.4839C101.661 26.3239 100.453 25.0789 98.3659 25.0789C96.8649 25.0789 95.3279 25.9579 94.2289 27.4219V36.9039C94.2289 38.4049 94.8509 39.2099 96.1689 39.3569L96.8279 39.4299V40.3819H87.9689V39.4299L88.7379 39.3569C90.1659 39.2109 90.8609 38.4049 90.8609 36.9039V17.9409C90.8609 16.8789 90.4949 16.4399 89.1769 15.9279L87.8589 15.3789L94.2289 13.8409V26.1119Z" fill="black"/>
<path fill-rule="evenodd" clip-rule="evenodd" d="M118.512 38.222V37.159C116.523 39.96 115.024 40.748 113.021 40.748C109.982 40.748 108.152 39.101 108.152 36.392C108.152 34.012 109.36 32.768 112.801 31.596L118.439 29.692V28.008C118.439 25.738 117.084 24.237 115.034 24.237C113.13 24.237 111.483 25.042 111.3 26.177H112.435C112.691 28.154 111.813 29.033 110.568 29.033C109.653 29.033 108.847 28.228 108.847 27.129C108.847 25.079 111.556 22.809 115.363 22.809C119.5 22.809 121.77 24.676 121.77 28.081V37.38C121.77 38.149 122.246 38.625 122.941 38.625C123.673 38.625 124.186 38.442 124.771 37.893L124.844 37.93C124.222 39.431 122.574 40.602 121.183 40.602C119.536 40.602 118.548 39.723 118.512 38.222ZM111.483 35.915C111.483 37.636 112.581 38.807 114.265 38.807C115.803 38.807 117.413 37.562 118.438 35.769V30.863L114.667 32.181C112.361 33.023 111.483 34.011 111.483 35.915Z" fill="black"/>
<path d="M129.429 24.64V36.465C129.429 37.6 130.198 38.295 131.333 38.295C132.688 38.295 133.639 37.526 134.335 35.915L134.445 35.952C133.786 39.064 132.175 40.675 129.686 40.675C127.636 40.675 126.062 39.247 126.062 37.051V24.641H123.023C125.329 23.14 128.038 19.955 129.43 17.063V23.177H134.262V24.641H129.43L129.429 24.64Z" fill="black"/>
<path fill-rule="evenodd" clip-rule="evenodd" d="M141.765 36.538V28.557H146.341C151.539 28.557 155.2 25.628 155.2 21.455C155.2 17.428 151.649 14.756 146.304 14.756H134.443V15.818L135.285 15.891C137.006 16.037 137.884 16.916 137.884 18.6V36.538C137.884 38.222 137.005 39.101 135.285 39.247L134.443 39.32V40.382H145.206V39.32L144.364 39.247C142.643 39.101 141.765 38.222 141.765 36.538ZM141.765 27.276H145.902C149.05 27.276 151.137 25.043 151.137 21.602C151.137 18.271 149.197 16.257 145.902 16.257H141.765V27.276Z" fill="black"/>
<path fill-rule="evenodd" clip-rule="evenodd" d="M161.781 28.008V36.538C161.781 38.222 162.66 39.101 164.38 39.247L165.222 39.32V40.382H154.459V39.32L155.301 39.247C157.021 39.101 157.9 38.222 157.9 36.538V18.6C157.9 16.916 157.021 16.037 155.301 15.891L154.459 15.818V14.756H166.504C171.702 14.756 175.217 17.319 175.217 21.089C175.217 24.201 172.362 26.91 169.397 27.496C171.154 28.155 172.179 29.217 172.911 30.937L175.584 37.307C176.126 38.624 177.457 39.36 178.855 39.247C180.575 39.101 181.454 38.222 181.454 36.538V18.6C181.454 16.916 180.575 16.037 178.855 15.891L178.013 15.818V14.756H188.959C196.977 14.756 202.834 20.101 202.834 27.386C202.834 34.744 196.757 40.382 188.886 40.382H172.436L168.811 30.717C168.079 28.777 167.091 28.008 165.297 28.008H161.781ZM165.918 26.726H161.782V16.256H165.918C169.176 16.256 171.154 18.233 171.154 21.454C171.154 24.602 169.03 26.726 165.918 26.726ZM188.445 38.881H185.334V16.257H188.775C194.596 16.257 198.55 20.833 198.55 27.533C198.55 34.489 194.669 38.882 188.446 38.882L188.445 38.881Z" fill="black"/>
<g clip-path="url(#clip1_271_2533)">
<mask id="mask0_271_2533" style="mask-type:luminance" maskUnits="userSpaceOnUse" x="0" y="0" width="54" height="54">
<path d="M40.406 0.0550537H13.5004C6.07024 0.0550537 0.046875 6.07842 0.046875 13.5086V40.4142C0.046875 47.8444 6.07024 53.8677 13.5004 53.8677H40.406C47.8362 53.8677 53.8596 47.8444 53.8596 40.4142V13.5086C53.8596 6.07842 47.8362 0.0550537 40.406 0.0550537Z" fill="white"/>
</mask>
<g mask="url(#mask0_271_2533)">
<path d="M40.406 0.0550537H13.5004C6.07024 0.0550537 0.046875 6.07842 0.046875 13.5086V40.4142C0.046875 47.8444 6.07024 53.8677 13.5004 53.8677H40.406C47.8362 53.8677 53.8596 47.8444 53.8596 40.4142V13.5086C53.8596 6.07842 47.8362 0.0550537 40.406 0.0550537Z" fill="url(#paint0_radial_271_2533)"/>
<g filter="url(#filter0_f_271_2533)">
<path d="M126.63 -96.7266H-136.98V74.3184H126.63V-96.7266Z" fill="url(#pattern0_271_2533)"/>
</g>
<g filter="url(#filter1_f_271_2533)">
<path d="M-4.93803 76.7507L5.65945 52.6174L-17.6108 53.8242L5.70438 49.2159L-4.28954 27.6529L8.4282 47.1778L21.7046 24.4081L11.1072 48.5414L34.3774 47.3346L11.0622 51.943L21.0562 73.5059L8.33841 53.981L-4.93803 76.7507Z" fill="white" fill-opacity="0.4"/>
</g>
<g filter="url(#filter2_f_271_2533)">
<path d="M-8.12598 44.9653L2.47149 20.832L-20.7988 22.0388L2.51642 17.4304L-7.4775 -4.13251L5.24028 15.3924L18.5167 -7.37732L7.91921 16.756L31.1895 15.5492L7.87429 20.1576L17.8682 41.7206L5.15042 22.1956L-8.12598 44.9653Z" fill="#FF8A31" fill-opacity="0.4"/>
</g>
<g filter="url(#filter3_f_271_2533)">
<path d="M17.149 29.7751L27.7464 5.64179L4.47607 6.84858L27.7913 2.24019L17.7974 -19.3227L30.5152 0.202183L43.7916 -22.5675L33.1941 1.56577L56.4644 0.358973L33.1492 4.96737L43.1431 26.5303L30.4253 7.00538L17.149 29.7751Z" fill="#FB78FF" fill-opacity="0.4"/>
</g>
<g filter="url(#filter4_f_271_2533)">
<path d="M34.029 70.41C44.9811 71.1769 54.4813 62.9201 55.2482 51.968C56.0151 41.0159 47.7583 31.5157 36.8062 30.7488C25.854 29.9819 16.3539 38.2387 15.587 49.1908C14.8201 60.143 23.0769 69.6431 34.029 70.41Z" fill="url(#paint1_radial_271_2533)"/>
</g>
<path fill-rule="evenodd" clip-rule="evenodd" d="M21.7802 12.2147C16.5122 12.2147 12.2417 16.4853 12.2417 21.7532C12.2417 22.9725 12.4701 24.1371 12.8862 25.2077C14.7899 22.7791 17.6681 21.1486 20.9335 20.9065C21.1756 17.6412 22.8061 14.7629 25.2346 12.8593C24.1642 12.4431 22.9995 12.2147 21.7802 12.2147ZM26.9884 11.729C25.4292 10.9173 23.6571 10.4589 21.7802 10.4589C15.5425 10.4589 10.4858 15.5155 10.4858 21.7532V32.1696C10.4858 38.4073 15.5425 43.464 21.7802 43.464C23.6571 43.464 25.4292 43.0054 26.9884 42.1938C28.5476 43.0054 30.3196 43.464 32.1966 43.464C38.4343 43.464 43.4909 38.4073 43.4909 32.1696V21.7532C43.4909 15.5155 38.4343 10.4589 32.1966 10.4589C30.3196 10.4589 28.5476 10.9173 26.9884 11.729ZM41.7351 26.119V21.7532C41.7351 16.4853 37.4646 12.2147 32.1966 12.2147C30.4578 12.2147 28.8301 12.6792 27.428 13.4903C24.5747 15.1408 22.6581 18.2237 22.6581 21.7532V26.119C23.6341 24.5834 24.9706 23.2998 26.5488 22.3868C28.2109 21.4253 30.1409 20.8753 32.1966 20.8753C36.2096 20.8753 39.7326 22.9686 41.7351 26.119ZM20.9023 31.2519V22.671C17.9239 22.9427 15.3406 24.5834 13.7877 26.9614C15.3406 29.3395 17.9239 30.9801 20.9023 31.2519ZM12.2417 27.8038V32.1696C12.2417 37.4376 16.5122 41.7081 21.7802 41.7081C23.5191 41.7081 25.1467 41.2437 26.5488 40.4326C29.4021 38.782 31.3187 35.6991 31.3187 32.1696V27.8038C30.3427 29.3395 29.0063 30.6231 27.428 31.5361C25.7659 32.4976 23.8359 33.0476 21.7802 33.0476C17.7673 33.0476 14.2442 30.9543 12.2417 27.8038ZM33.0745 22.671V31.2519C36.0529 30.9801 38.6362 29.3395 40.1891 26.9614C38.6362 24.5834 36.0529 22.9427 33.0745 22.671ZM41.0906 28.7152C41.5067 29.7857 41.7351 30.9503 41.7351 32.1696C41.7351 37.4376 37.4646 41.7081 32.1966 41.7081C30.9773 41.7081 29.8127 41.4797 28.7421 41.0636C31.1707 39.1599 32.8012 36.2817 33.0433 33.0163C36.3086 32.7742 39.1869 31.1437 41.0906 28.7152ZM31.2747 22.6751C31.1414 24.0672 30.7091 25.3705 30.0431 26.5218C29.2053 27.9702 27.9972 29.1783 26.5488 30.0161C25.3975 30.6821 24.0941 31.1144 22.7021 31.2478C22.8354 29.8557 23.2677 28.5523 23.9337 27.401C24.7715 25.9527 25.9796 24.7445 27.428 23.9067C28.5793 23.2407 29.8826 22.8084 31.2747 22.6751Z" fill="white"/>
</g>
</g>
</g>
<defs>
<filter id="filter0_f_271_2533" x="-144.837" y="-104.584" width="279.325" height="186.76" filterUnits="userSpaceOnUse" color-interpolation-filters="sRGB">
<feFlood flood-opacity="0" result="BackgroundImageFix"/>
<feBlend mode="normal" in="SourceGraphic" in2="BackgroundImageFix" result="shape"/>
<feGaussianBlur stdDeviation="3.92876" result="effect1_foregroundBlur_271_2533"/>
</filter>
<pattern id="pattern0_271_2533" patternContentUnits="objectBoundingBox" width="1" height="1">

</pattern>
<filter id="filter1_f_271_2533" x="-22.3184" y="19.7005" width="61.4034" height="61.7578" filterUnits="userSpaceOnUse" color-interpolation-filters="sRGB">
<feFlood flood-opacity="0" result="BackgroundImageFix"/>
<feBlend mode="normal" in="SourceGraphic" in2="BackgroundImageFix" result="shape"/>
<feGaussianBlur stdDeviation="2.35377" result="effect1_foregroundBlur_271_2533"/>
</filter>
<filter id="filter2_f_271_2533" x="-25.5064" y="-12.0849" width="61.4034" height="61.7578" filterUnits="userSpaceOnUse" color-interpolation-filters="sRGB">
<feFlood flood-opacity="0" result="BackgroundImageFix"/>
<feBlend mode="normal" in="SourceGraphic" in2="BackgroundImageFix" result="shape"/>
<feGaussianBlur stdDeviation="2.35377" result="effect1_foregroundBlur_271_2533"/>
</filter>
<filter id="filter3_f_271_2533" x="-0.231475" y="-27.2751" width="61.4034" height="61.7578" filterUnits="userSpaceOnUse" color-interpolation-filters="sRGB">
<feFlood flood-opacity="0" result="BackgroundImageFix"/>
<feBlend mode="normal" in="SourceGraphic" in2="BackgroundImageFix" result="shape"/>
<feGaussianBlur stdDeviation="2.35377" result="effect1_foregroundBlur_271_2533"/>
</filter>
<filter id="filter4_f_271_2533" x="6.98396" y="22.1458" width="56.8673" height="56.8672" filterUnits="userSpaceOnUse" color-interpolation-filters="sRGB">
<feFlood flood-opacity="0" result="BackgroundImageFix"/>
<feBlend mode="normal" in="SourceGraphic" in2="BackgroundImageFix" result="shape"/>
<feGaussianBlur stdDeviation="4.27682" result="effect1_foregroundBlur_271_2533"/>
</filter>
<radialGradient id="paint0_radial_271_2533" cx="0" cy="0" r="1" gradientUnits="userSpaceOnUse" gradientTransform="translate(52.2227 56.7825) rotate(-132.587) scale(94.9446)">
<stop offset="0.123564" stop-color="#675BD2"/>
<stop offset="0.395426" stop-color="#DF65C4"/>
<stop offset="0.747852" stop-color="#FF8653"/>
</radialGradient>
<radialGradient id="paint1_radial_271_2533" cx="0" cy="0" r="1" gradientUnits="userSpaceOnUse" gradientTransform="translate(16.9756 29.3602) rotate(49.0055) scale(56.2266)">
<stop offset="0.109997" stop-color="#FF8653"/>
<stop offset="0.443933" stop-color="#DF65C4"/>
<stop offset="0.859043" stop-color="#675BD2"/>
</radialGradient>
<clipPath id="clip0_271_2533">
<rect width="202.833" height="54.222" fill="white"/>
</clipPath>
<clipPath id="clip1_271_2533">
<rect width="53.8759" height="53.8759" fill="white"/>
</clipPath>

</defs>
</svg>
