<svg width="189" height="45" viewBox="0 0 189 45" fill="none" xmlns="http://www.w3.org/2000/svg">
<g clip-path="url(#clip0_171_6962)">
<path d="M19.702 22.5L39.2174 33.761C39.0975 33.9685 38.9236 34.1457 38.7084 34.2698L20.4677 44.795C19.9941 45.0683 19.4099 45.0683 18.9362 44.795L0.6956 34.2698C0.480319 34.1457 0.306406 33.9685 0.186523 33.761L19.702 22.5Z" fill="#72716D"/>
<path d="M19.702 0V22.5L0.186577 33.761C0.066695 33.5534 0 33.3138 0 33.0657V11.9343C0 11.4373 0.265091 10.9791 0.695654 10.7302L18.9355 0.205036C19.1727 0.0683455 19.4369 0 19.7012 0H19.702Z" fill="#55544F"/>
<path d="M39.2168 11.239C39.0969 11.0315 38.923 10.8543 38.7077 10.7302L20.467 0.205036C20.2306 0.0683455 19.9664 0 19.7021 0V22.5L39.2176 33.761C39.3375 33.5534 39.4042 33.3138 39.4042 33.0657V11.9343C39.4042 11.6854 39.3383 11.4474 39.2176 11.239H39.2168Z" fill="#43413C"/>
<path d="M37.8515 12.0272C37.9621 12.2179 37.9773 12.4626 37.8515 12.6803L20.1368 43.3446C20.0178 43.5522 19.7012 43.467 19.7012 43.2282V23.0215C19.7012 22.8604 19.6581 22.7051 19.5796 22.5693L37.8506 12.0264H37.8515V12.0272Z" fill="#D6D5D2"/>
<path d="M37.8515 12.0272L19.5805 22.5701C19.5028 22.4351 19.3897 22.3204 19.2496 22.2394L1.74087 12.1361C1.53319 12.0171 1.61846 11.7007 1.85738 11.7007H37.2859C37.5375 11.7007 37.7418 11.8365 37.8515 12.0272Z" fill="white"/>
<path d="M60.9914 11.7026H68.6436V15.9156H61.2506C57.2624 15.9156 54.1497 18.2165 54.1497 23.0775C54.1497 27.9385 57.2624 30.2394 61.2506 30.2394H68.6436V34.4524H60.6672C53.9876 34.4524 49.2539 30.5314 49.2539 23.0784C49.2539 15.6253 54.3117 11.7043 60.9914 11.7043V11.7026Z" fill="#26251E"/>
<path d="M72.5347 11.7026H77.2683V25.6046C77.2683 29.0717 78.8572 30.6925 82.5862 30.6925C86.3152 30.6925 87.9041 29.0725 87.9041 25.6046V11.7026H92.6377V26.5766C92.6377 31.6317 89.4279 34.8405 82.5862 34.8405C75.7445 34.8405 72.5347 31.5996 72.5347 26.5446V11.7026Z" fill="#26251E"/>
<path d="M117.376 18.1516C117.376 20.6795 115.918 22.6236 113.972 23.4665V23.5315C116.015 23.8234 117.052 25.2814 117.084 27.2584L117.181 34.4524H112.448L112.351 28.0364C112.319 26.6104 111.475 25.7354 109.789 25.7354H101.91V34.4524H97.1763V11.7026H110.243C114.524 11.7026 117.376 13.8737 117.376 18.1516ZM112.61 18.7996C112.61 16.8555 111.572 15.7856 109.627 15.7856H101.91V21.8127H109.691C111.474 21.8127 112.61 20.7436 112.61 18.7988V18.7996Z" fill="#26251E"/>
<path d="M135.274 27.8085C135.274 26.1885 134.236 25.5076 132.68 25.3785L127.427 24.8925C122.888 24.4714 120.521 22.6885 120.521 18.3786C120.521 14.0686 123.439 11.7026 127.621 11.7026H139.229V15.7856H127.946C126.325 15.7856 125.287 16.6286 125.287 18.2486C125.287 19.8687 126.357 20.6466 127.979 20.7765L133.328 21.2305C137.382 21.5866 140.04 23.4344 140.04 27.7765C140.04 32.1185 137.22 34.4524 133.231 34.4524H121.105V30.3694H132.777C134.301 30.3694 135.274 29.3324 135.274 27.8094V27.8085Z" fill="#26251E"/>
<path d="M153.886 11.3135C161.019 11.3135 165.526 15.8825 165.526 23.0444C165.526 30.2064 160.824 34.8403 153.691 34.8403C146.558 34.8403 142.051 30.2064 142.051 23.0444C142.051 15.8825 146.753 11.3135 153.886 11.3135ZM160.629 23.0773C160.629 18.2813 157.841 15.4623 153.788 15.4623C149.734 15.4623 146.946 18.2813 146.946 23.0773C146.946 27.8733 149.734 30.6924 153.788 30.6924C157.841 30.6924 160.629 27.8733 160.629 23.0773Z" fill="#26251E"/>
<path d="M189 18.1516C189 20.6795 187.541 22.6236 185.595 23.4665V23.5315C187.638 23.8234 188.676 25.2814 188.708 27.2584L188.805 34.4524H184.072L183.974 28.0364C183.942 26.6104 183.099 25.7354 181.413 25.7354H173.534V34.4524H168.8V11.7026H181.867C186.147 11.7026 189 13.8737 189 18.1516ZM184.234 18.7996C184.234 16.8555 183.196 15.7856 181.251 15.7856H173.534V21.8127H181.315C183.098 21.8127 184.234 20.7436 184.234 18.7988V18.7996Z" fill="#26251E"/>
</g>
<defs>
<clipPath id="clip0_171_6962">
<rect width="189" height="45" fill="white"/>
</clipPath>
</defs>
</svg>
