<svg width="194" height="25" overflow="visible" style="display: block;" viewBox="0 0 194 25" fill="none" xmlns="http://www.w3.org/2000/svg">
<g id="Group">
<path id="Vector" d="M69.3988 6.16451H64.4249L70.4358 24.5872H75.7899L81.8008 6.16451H76.8259L73.062 20.0421L69.3988 6.16451Z" fill="var(--fill-0, black)"/>
<path id="Vector_2" d="M0 0H5.14688V24.5863H0V0Z" fill="var(--fill-0, black)"/>
<path id="Vector_3" d="M10.2254 2.93371e-06H15.3723V24.5863H10.2254V2.93371e-06Z" fill="var(--fill-0, black)"/>
<path id="Vector_4" d="M20.4496 2.93371e-06H35.684V4.09788H25.5974V9.95211H34.994V14.05H25.5974V20.4894H35.684V24.5872H20.4496V2.93371e-06Z" fill="var(--fill-0, black)"/>
<path id="Vector_5" d="M38.8275 2.93371e-06H43.6978V24.5863H38.8275V2.93371e-06Z" fill="var(--fill-0, black)"/>
<path id="Vector_6" d="M46.6337 15.3582C46.6337 8.64299 49.9842 5.75081 55.2004 5.75081C60.4167 5.75081 63.3879 8.60851 63.3879 15.4271V16.5294H51.4356C51.6086 20.5238 52.8176 21.8665 55.132 21.8665C56.9626 21.8665 58.1023 20.7987 58.3104 18.9399H63.1807C62.8699 23.0032 59.4843 25 55.132 25C49.6049 25 46.6337 22.0734 46.6337 15.3582ZM58.5861 13.3269C58.3447 9.95211 57.1698 8.85077 55.1311 8.85077C53.0923 8.85077 51.8148 9.98752 51.4698 13.3269H58.5861Z" fill="var(--fill-0, black)"/>
<path id="Vector_7" d="M82.7332 15.3582C82.7332 8.64299 86.0836 5.75081 91.2999 5.75081C96.5162 5.75081 99.4874 8.60851 99.4874 15.4271V16.5294H87.535C87.708 20.5238 88.917 21.8665 91.2315 21.8665C93.0621 21.8665 94.2017 20.7987 94.4099 18.9399H99.2811C98.9703 23.0032 95.5847 25 91.2315 25C85.7044 25 82.7332 22.0734 82.7332 15.3582ZM94.6855 13.3269C94.4441 9.95211 93.2693 8.85077 91.2315 8.85077C89.1936 8.85077 87.9152 9.98752 87.5702 13.3269H94.6865H94.6855Z" fill="var(--fill-0, black)"/>
<path id="Vector_8" d="M122.562 2.93371e-06H127.709V20.4894H137.381V24.5872H122.562V2.93371e-06Z" fill="var(--fill-0, black)"/>
<path id="Vector_9" fill-rule="evenodd" clip-rule="evenodd" d="M138.591 15.3582C138.591 8.33365 141.838 5.75081 146.019 5.75081C148.091 5.75081 149.991 6.92204 150.751 8.16127V6.16358H155.725V24.5863H150.889V22.4172C150.164 23.8633 148.125 25 145.88 25C141.458 25 138.591 22.1758 138.591 15.3582ZM147.296 9.36697C149.714 9.36697 151.027 11.1923 151.027 15.3591C151.027 19.5259 149.714 21.3848 147.296 21.3848C144.878 21.3848 143.496 19.525 143.496 15.3591C143.496 11.1932 144.878 9.36697 147.296 9.36697Z" fill="var(--fill-0, black)"/>
<path id="Vector_10" fill-rule="evenodd" clip-rule="evenodd" d="M164.327 22.4172V24.5863H159.491V2.93371e-06H164.361V8.16127C165.19 6.88756 167.125 5.75081 169.197 5.75081C173.274 5.75081 176.521 8.33365 176.521 15.3582C176.521 22.3827 173.343 25 169.094 25C166.848 25 165.018 23.8633 164.327 22.4172ZM167.816 9.40144C170.234 9.40144 171.615 11.1923 171.615 15.3591C171.615 19.5259 170.234 21.3848 167.816 21.3848C165.398 21.3848 164.084 19.525 164.084 15.3591C164.084 11.1932 165.397 9.40144 167.816 9.40144Z" fill="var(--fill-0, black)"/>
<path id="Vector_11" d="M178.524 19.1122H183.395C183.464 21.04 184.501 21.9699 186.331 21.9699C188.162 21.9699 189.199 21.1435 189.199 19.6974C189.199 18.3892 188.404 17.9065 186.677 17.4938L185.192 17.1145C180.977 16.0467 178.87 14.9109 178.87 11.4327C178.87 7.95442 182.117 5.75081 186.262 5.75081C190.407 5.75081 193.551 7.36928 193.689 11.1914H188.819C188.715 9.50394 187.678 8.78089 186.194 8.78089C184.709 8.78089 183.671 9.50394 183.671 10.8811C183.671 12.1548 184.501 12.6374 185.951 12.9813L187.471 13.3595C191.478 14.3584 194 15.3572 194 19.0759C194 22.7945 190.684 24.9991 186.194 24.9991C181.322 24.9991 178.628 23.1738 178.524 19.1104V19.1122Z" fill="var(--fill-0, black)"/>
<path id="Vector_12" d="M107.363 13.7397C107.363 10.8475 108.745 9.26355 110.887 9.26355C112.649 9.26355 113.651 10.3658 113.651 12.7418V24.5872H118.521V11.9843C118.521 7.71403 116.103 5.75175 112.579 5.75175C110.196 5.75175 108.227 6.95652 107.363 8.54144V6.16545H102.424V24.5882H107.363V13.7416V13.7397Z" fill="var(--fill-0, black)"/>
</g>
</svg>
