<svg width="211.989" height="30.9061" viewBox="0 0 211.989 30.9061" fill="none" xmlns="http://www.w3.org/2000/svg">
<g id="Group">
<path id="Vector" d="M47.0298 26.5201V4.38433H63.6028V8.33769H51.4098V13.5241H62.3045V17.3503H51.4098V26.5218L47.0298 26.5201Z" fill="var(--fill-0, black)"/>
<path id="Vector_2" d="M66.4585 26.5201L73.2594 7.4911C73.584 6.58265 74.1896 5.79633 74.9943 5.23921C75.7974 4.68209 76.7594 4.38262 77.7448 4.38262C78.7369 4.38262 79.7039 4.68544 80.5103 5.24925C81.3167 5.81306 81.9223 6.60775 82.2419 7.52456L88.8637 26.5201H84.3566L82.7672 21.9025H72.6504L70.9958 26.5201H66.4585ZM73.947 18.0462H81.4706L78.7519 10.0676C78.4274 9.11394 77.0455 9.11059 76.7175 10.0625L73.9487 18.0479L73.947 18.0462Z" fill="var(--fill-0, black)"/>
<path id="Vector_3" d="M92.2667 15.4514C92.2667 9.22271 97.4213 4.13002 103.811 4.13002C108.512 4.13002 112.34 6.91393 114.155 10.8656L110.004 12.0367C108.836 9.79154 106.697 8.17874 103.811 8.17874C99.6598 8.17874 96.6116 11.4043 96.6116 15.4531C96.6116 19.5018 99.6632 22.6956 103.811 22.6956C106.697 22.6956 108.771 21.2417 109.907 18.9647L114.123 20.0723C112.34 23.9939 108.545 26.7443 103.812 26.7443C97.423 26.7443 92.2684 21.6867 92.2684 15.4547L92.2667 15.4514Z" fill="var(--fill-0, black)"/>
<path id="Vector_4" d="M125.699 26.5201V8.33769H118.565V4.38433H136.918V8.33769H130.044V26.5218L125.699 26.5201Z" fill="var(--fill-0, black)"/>
<path id="Vector_5" d="M141.367 15.3042C141.466 9.09221 146.61 4.12667 152.979 4.1618C159.335 4.19861 164.453 9.24445 164.486 15.4832C164.518 21.7219 159.298 26.7761 152.909 26.7761C146.459 26.7727 141.266 21.6182 141.367 15.3042ZM160.108 15.4832C160.108 11.4344 157.056 8.11182 152.909 8.11182C148.792 8.11182 145.71 11.4328 145.71 15.4832C145.71 19.5001 148.762 22.7859 152.909 22.7859C157.056 22.7859 160.108 19.5302 160.108 15.4832Z" fill="var(--fill-0, black)"/>
<path id="Vector_6" d="M170.415 26.5201V4.38433H180.629C185.105 4.38433 188.476 7.86255 188.476 11.8795C188.472 13.3166 188.017 14.7186 187.171 15.8947C186.324 17.0709 185.128 17.966 183.743 18.4578L188.8 26.5218H183.84L179.137 18.9949H174.795V26.5218L170.415 26.5201ZM174.792 15.2958H180.564C182.64 15.2958 184.261 13.8085 184.261 11.754C184.261 9.76143 182.735 8.21221 180.629 8.21221H174.795L174.792 15.2958Z" fill="var(--fill-0, black)"/>
<path id="Vector_7" d="M199.829 19.5955L191.949 4.38433H196.587L201.969 14.7889L207.351 4.38433H211.989L204.206 19.4683V26.5201H199.829V19.5938V19.5955Z" fill="var(--fill-0, black)"/>
<path id="Vector_8" d="M22.7893 5.36138C22.7291 5.34632 22.6739 5.31956 22.6254 5.28275C22.5769 5.24594 22.5384 5.1991 22.5099 5.14556C22.4815 5.09202 22.4664 5.03347 22.4648 4.97324C22.4631 4.91301 22.4731 4.85446 22.4966 4.79925C23.3113 2.8669 23.6694 1.32103 23.0905 0.673564C21.5546 -1.04296 15.3979 2.37001 13.4355 3.52775C13.3836 3.55786 13.3234 3.57794 13.2631 3.58463C13.2029 3.59132 13.141 3.58463 13.0824 3.56623C13.0239 3.54782 12.9704 3.51603 12.9252 3.47588C12.88 3.43573 12.8449 3.38554 12.8215 3.33033C11.9983 1.40133 11.13 0.0595638 10.2517 0.0026809C7.92116 -0.15291 6.04235 6.5074 5.4936 8.67732C5.47854 8.73587 5.45177 8.78941 5.41329 8.83626C5.37481 8.8831 5.3263 8.92158 5.27276 8.94835C5.21755 8.97512 5.15732 8.99017 5.09709 8.99185C5.03519 8.99352 4.97496 8.98348 4.91808 8.96006C2.93722 8.16537 1.35119 7.81571 0.688669 8.38119C-1.07135 9.87855 2.42862 15.883 3.61479 17.797C3.64658 17.8488 3.66665 17.9057 3.67335 17.9643C3.68004 18.0245 3.67335 18.0847 3.65494 18.1416C3.63654 18.1985 3.60475 18.2504 3.56293 18.2939C3.5211 18.3374 3.47091 18.3725 3.41403 18.3943C1.43818 19.199 0.0629573 20.0455 0.0027284 20.9021C-0.156209 23.1758 6.67308 25.006 8.89988 25.5431C8.96011 25.5581 9.01532 25.5849 9.06216 25.6217C9.11068 25.6585 9.14916 25.7054 9.17593 25.7589C9.2027 25.8124 9.21943 25.871 9.2211 25.9312C9.22277 25.9915 9.21274 26.05 9.18931 26.1052C8.37455 28.0376 8.01652 29.5834 8.59539 30.2309C10.1312 31.9474 16.288 28.5345 18.2504 27.3784C18.3023 27.3483 18.3625 27.3282 18.4227 27.3215C18.483 27.3148 18.5449 27.3215 18.6034 27.3399C18.662 27.3583 18.7155 27.3901 18.7607 27.4303C18.8059 27.4704 18.841 27.5206 18.8644 27.5758C19.6892 29.5031 20.5559 30.8449 21.4359 30.9035C23.7664 31.0574 25.6452 24.3987 26.1939 22.2272C26.209 22.1686 26.2358 22.1151 26.2743 22.0682C26.3127 22.0214 26.3612 21.9829 26.4165 21.9561C26.4717 21.9294 26.5319 21.9143 26.5921 21.9126C26.654 21.911 26.7143 21.921 26.7711 21.9444C28.752 22.7391 30.338 23.0888 31.0006 22.5233C32.7606 21.0259 29.2606 15.0214 28.0744 13.1075C28.0426 13.0556 28.0226 12.9987 28.0159 12.9402C28.0092 12.88 28.0159 12.8214 28.0343 12.7645C28.0527 12.7076 28.0845 12.6558 28.1263 12.6123C28.1681 12.5688 28.2183 12.5336 28.2752 12.5102C30.2527 11.7055 31.6263 10.8589 31.6865 10.0024C31.8454 7.73039 25.0145 5.89842 22.7893 5.36138ZM20.1158 3.18143C20.5642 3.96441 18.2554 9.18257 16.5389 12.8314C16.5105 12.8917 16.4636 12.9435 16.4034 12.977C16.3448 13.0105 16.2762 13.0272 16.206 13.0222C16.1374 13.0171 16.0721 12.9921 16.0186 12.9486C15.9651 12.9067 15.9266 12.8482 15.9082 12.7846C15.2156 10.4122 14.4225 7.62331 13.5743 5.25765C13.5409 5.16396 13.5425 5.06358 13.5793 4.97157C13.6161 4.87955 13.6847 4.80426 13.7734 4.75575C15.8915 3.62813 19.5152 2.13077 20.1175 3.18143H20.1158ZM9.96727 3.82722C10.8506 4.07148 13.0021 9.35322 14.4342 13.1175C14.4577 13.1811 14.461 13.2497 14.4443 13.3133C14.4276 13.3785 14.3891 13.4371 14.3372 13.4806C14.2853 13.5241 14.2201 13.5508 14.1515 13.5575C14.0829 13.5642 14.0143 13.5508 13.9541 13.5191C11.7407 12.3212 9.16087 10.8941 6.8454 9.80661C6.75506 9.76311 6.68312 9.69117 6.6413 9.60083C6.60114 9.51049 6.59445 9.4101 6.62289 9.31641C7.30381 7.06118 8.77942 3.49763 9.96727 3.82722ZM3.26011 11.2839C4.06316 10.8472 9.4135 13.0975 13.1544 14.7722C13.2163 14.8006 13.2698 14.8458 13.305 14.9043C13.3401 14.9629 13.3551 15.0298 13.3501 15.0967C13.3451 15.1636 13.3183 15.2272 13.2748 15.2791C13.2313 15.3309 13.1728 15.3694 13.1059 15.3878C10.6733 16.0637 7.81409 16.8367 5.38653 17.6648C5.29116 17.6966 5.18744 17.6949 5.09375 17.6598C5.00006 17.6247 4.92142 17.5577 4.87291 17.4707C3.71852 15.4062 2.18101 11.8711 3.26011 11.2839ZM3.92095 21.1815C4.17191 20.3199 9.58749 18.2219 13.4472 16.825C13.5124 16.8015 13.5827 16.7982 13.6479 16.8149C13.7148 16.8316 13.7751 16.8685 13.8186 16.9186C13.8637 16.9688 13.8905 17.0324 13.8989 17.0993C13.9056 17.1663 13.8922 17.2332 13.8587 17.2917C12.6307 19.4499 11.1668 21.9662 10.0509 24.2231C10.0074 24.3117 9.93214 24.382 9.84012 24.4222C9.7481 24.4623 9.64438 24.469 9.54734 24.4406C7.23355 23.7797 3.583 22.3376 3.92095 21.1798V21.1815ZM11.5667 27.723C11.1183 26.9401 13.4271 21.7219 15.1436 18.073C15.1721 18.0128 15.2189 17.9609 15.2791 17.9275C15.3377 17.894 15.4063 17.8773 15.4765 17.8823C15.5451 17.8873 15.6104 17.9124 15.6639 17.9559C15.7175 17.9977 15.7559 18.0563 15.7743 18.1199C16.467 20.4922 17.26 23.2812 18.1082 25.6485C18.1417 25.7422 18.14 25.8426 18.1032 25.9346C18.0664 26.0266 17.9978 26.1019 17.9091 26.1487C15.7927 27.2747 12.1656 28.7754 11.5667 27.723ZM21.7153 27.0773C20.8302 26.833 18.6804 21.5513 17.2483 17.7869C17.2249 17.7234 17.2198 17.6548 17.2382 17.5895C17.255 17.5243 17.2935 17.4657 17.3453 17.4222C17.3972 17.3787 17.4624 17.352 17.531 17.3453C17.5996 17.3386 17.6682 17.352 17.7284 17.3854C19.9402 18.5833 22.5217 20.0104 24.8371 21.0995C24.9275 21.1414 25.0011 21.215 25.0412 21.3053C25.0814 21.3957 25.0881 21.496 25.0596 21.5914C24.3787 23.85 22.9048 27.4068 21.7169 27.0789L21.7153 27.0773ZM28.4224 19.6223C27.6194 20.0589 22.269 17.807 18.5265 16.134C18.4646 16.1056 18.411 16.0604 18.3759 16.0018C18.3408 15.9433 18.3257 15.8763 18.3307 15.8094C18.3357 15.7425 18.3625 15.6789 18.406 15.6271C18.4495 15.5752 18.5081 15.5367 18.575 15.5183C21.0076 14.8424 23.8668 14.0695 26.2943 13.2413C26.3897 13.2095 26.4934 13.2112 26.5871 13.2464C26.6808 13.2815 26.7594 13.3484 26.808 13.4354C27.9623 15.4999 29.4998 19.035 28.4224 19.6206V19.6223ZM27.7616 9.72463C27.5106 10.5879 22.095 12.6859 18.2354 14.0812C18.1701 14.1046 18.0998 14.108 18.0346 14.0912C17.9677 14.0745 17.9075 14.0377 17.864 13.9875C17.8188 13.9373 17.792 13.8737 17.7836 13.8068C17.777 13.7399 17.7903 13.673 17.8238 13.6144C19.0518 11.4579 20.5157 8.93998 21.6316 6.68307C21.6751 6.5944 21.7504 6.52413 21.8424 6.48398C21.9344 6.44383 22.0382 6.43714 22.1352 6.46558C24.449 7.12977 28.0995 8.5669 27.7632 9.72631L27.7616 9.72463Z" fill="var(--fill-0, black)"/>
</g>
</svg>
