<svg width="151" height="43" viewBox="0 0 151 43" fill="none" xmlns="http://www.w3.org/2000/svg">
<path d="M143.155 15.5195L139.117 30.5368L135.138 15.6793L135.095 15.5195H128.696L124.659 30.5368L120.68 15.6793L120.637 15.5195H114.69L121.234 37.3049L121.278 37.4646H127.836L131.917 22.4763L135.911 37.2903L135.955 37.4646H142.513L149.013 15.7955L149.101 15.5195H143.155Z" fill="#1A1A1A"/>
<path d="M112.299 18.0612C110.215 15.9553 107.344 14.8516 104.007 14.8516C100.669 14.8516 97.8268 15.9553 95.7426 18.0612C93.6584 20.1671 92.5508 23.0864 92.5508 26.4849C92.5508 29.8834 93.6584 32.7882 95.7426 34.9085C97.8268 37.0144 100.669 38.1182 104.007 38.1182C107.344 38.1182 110.215 37.0144 112.299 34.9085C114.384 32.8026 115.491 29.8834 115.491 26.4849C115.491 23.0864 114.384 20.1671 112.299 18.0612ZM109.618 26.4849C109.618 28.373 109.078 29.9996 108.058 31.1469C107.053 32.2943 105.639 32.9044 103.992 32.9044C102.345 32.9044 100.946 32.2943 99.9548 31.1469C98.9491 29.985 98.4243 28.373 98.4243 26.4704C98.4243 24.5679 98.9491 22.9556 99.9548 21.7938C100.96 20.6464 102.36 20.0365 103.992 20.0365C105.624 20.0365 107.038 20.6464 108.058 21.7938C109.078 22.9556 109.618 24.5679 109.618 26.4704V26.4849Z" fill="#1A1A1A"/>
<path d="M89.2142 32.3957C88.7479 32.3957 88.4272 32.3085 88.2376 32.1196C88.0482 31.9309 87.9754 31.6259 87.9754 31.1611V6.18066H82.2766V32.9621C82.2766 34.5741 82.6701 35.6925 83.4572 36.4186C84.2442 37.1303 85.4103 37.4498 87.13 37.4498H91.9542V32.3811H89.2142V32.3957Z" fill="#1A1A1A"/>
<path d="M78.7055 11.6851V6.18066H59.292V37.4498H65.1802V24.2333H78.7055V18.7434H65.1802V11.6851H78.7055Z" fill="#1A1A1A"/>
<path d="M2.97323 0.444336C2.1862 0.444336 1.42832 0.74933 0.874481 1.30122C0.306069 1.85311 0 2.60835 0 3.37808V38.2345C0 38.6266 0.0728734 39.0042 0.21862 39.3673C0.364368 39.7305 0.582988 40.0499 0.859907 40.326C1.13682 40.6019 1.45747 40.8197 1.82184 40.9649C2.1862 41.1102 2.56514 41.1827 2.95867 41.1827C3.7457 41.1827 4.50357 40.8778 5.05741 40.326C5.61125 39.774 5.93189 39.0333 5.93189 38.2491V3.37808C5.93189 2.59382 5.62582 1.85311 5.05741 1.30122C4.50357 0.74933 3.7457 0.444336 2.95867 0.444336H2.97323Z" fill="#1A1A1A"/>
<path d="M20.8113 7.11035C20.4178 7.11035 20.039 7.18298 19.6745 7.32822C19.3102 7.47343 18.9895 7.6913 18.7126 7.96724C18.4358 8.24319 18.2171 8.56271 18.0713 8.92579C17.9256 9.28888 17.8381 9.6665 17.8381 10.0441V31.292C17.8381 32.0762 18.1442 32.8169 18.7126 33.3689C19.2665 33.9207 20.0243 34.2258 20.8113 34.2258C21.5984 34.2258 22.3562 33.9207 22.9101 33.3689C23.464 32.8169 23.7846 32.0762 23.7846 31.292V10.0441C23.7846 9.25984 23.4785 8.51914 22.9101 7.96724C22.3562 7.41535 21.5984 7.11035 20.8113 7.11035Z" fill="#1A1A1A"/>
<path d="M11.8937 19.1069C11.1066 19.1069 10.3487 19.4119 9.7949 19.9638C9.24106 20.5158 8.92041 21.2565 8.92041 22.0407V34.1533C8.92041 34.9377 9.22648 35.6784 9.7949 36.2301C10.3487 36.7821 11.1066 37.0871 11.8937 37.0871C12.6807 37.0871 13.4386 36.7821 13.9924 36.2301C14.5462 35.6784 14.8669 34.9377 14.8669 34.1533V22.0407C14.8669 21.2565 14.5608 20.5158 13.9924 19.9638C13.4386 19.4119 12.6807 19.1069 11.8937 19.1069Z" fill="#1A1A1A"/>
<path d="M38.652 0.444336C38.2583 0.444336 37.8795 0.516954 37.5152 0.662188C37.1507 0.807424 36.8302 1.02528 36.5531 1.30122C36.2763 1.57717 36.0577 1.89669 35.9119 2.25977C35.7662 2.62287 35.6787 3.00048 35.6787 3.37808V38.2345C35.6787 39.0189 35.9847 39.7596 36.5531 40.3113C37.107 40.8633 37.8648 41.1683 38.652 41.1683C39.4389 41.1683 40.1969 40.8633 40.7506 40.3113C41.3046 39.7596 41.6252 39.0189 41.6252 38.2345V3.37808C41.6252 2.59382 41.319 1.85311 40.7506 1.30122C40.1969 0.74933 39.4389 0.444336 38.652 0.444336Z" fill="#1A1A1A"/>
<path d="M29.7318 19.1069C28.9447 19.1069 28.1869 19.4119 27.633 19.9638C27.079 20.5158 26.7585 21.2565 26.7585 22.0407V34.1533C26.7585 34.9377 27.0646 35.6784 27.633 36.2301C28.1869 36.7821 28.9447 37.0871 29.7318 37.0871C30.5188 37.0871 31.2766 36.7821 31.8305 36.2301C32.3844 35.6784 32.7049 34.9377 32.7049 34.1533V22.0407C32.7049 21.2565 32.3989 20.5158 31.8305 19.9638C31.2766 19.4119 30.5188 19.1069 29.7318 19.1069Z" fill="#1A1A1A"/>
</svg>
