<svg width="183" height="49" viewBox="0 0 183 49" fill="none" xmlns="http://www.w3.org/2000/svg">
<g clip-path="url(#clip0_271_2508)">
<path d="M16.326 16.326H0V32.652L16.326 48.978V32.652H32.652L16.326 16.326H32.652V0H0L16.326 16.326ZM57.4767 37.9938H62.9277V26.2488H75.9154V21.6768H62.9277V14.3035H76.8865V9.62322H57.4767V37.9938ZM89.0403 17.714C87.7164 17.714 86.664 18.0127 85.8744 18.612C85.0856 19.2103 84.5143 20.0993 84.1425 21.2779H84.0884V17.8864H79.0633V37.9938H84.2788V26.8562C84.2788 25.8129 84.4511 24.952 84.8049 24.2534C85.1578 23.5639 85.6298 23.0468 86.2462 22.7021C86.8635 22.3573 87.544 22.1849 88.3057 22.1849C89.0872 22.1813 89.8679 22.2174 90.6458 22.2941V17.7772C90.4464 17.7682 90.2099 17.7501 89.9383 17.7321C89.6747 17.714 89.376 17.705 89.0403 17.705V17.714ZM106.554 20.6706H106.5C106.092 19.963 105.584 19.3737 104.976 18.9017C104.368 18.4306 103.689 18.0768 102.926 17.8313C102.173 17.5868 101.357 17.4685 100.478 17.4685C98.7628 17.4685 97.2484 17.9135 95.9425 18.7934C94.6366 19.6724 93.6114 20.8971 92.8858 22.4665C92.1602 24.0359 91.7884 25.8499 91.7884 27.9175C91.7884 29.9851 92.1512 31.8452 92.8768 33.4227C93.6024 35.0012 94.6186 36.2258 95.9245 37.0967C97.2304 37.9667 98.7628 38.4117 100.514 38.4117C101.394 38.4117 102.209 38.2844 102.963 38.0218C103.716 37.7583 104.395 37.3774 105.003 36.8783C105.611 36.3802 106.101 35.7448 106.5 34.9831H106.572V37.9938H111.661V17.8864H106.554V20.6706ZM106.146 31.2008C105.729 32.1258 105.158 32.8424 104.414 33.3505C103.67 33.8586 102.8 34.1122 101.792 34.1122C100.849 34.1122 100.024 33.8676 99.316 33.3866C98.6094 32.9056 98.0561 32.1989 97.6563 31.282C97.2665 30.366 97.067 29.2415 97.067 27.9175C97.067 26.5936 97.2665 25.4592 97.6563 24.5431C98.0462 23.6271 98.6003 22.9286 99.316 22.4485C100.033 21.9674 100.849 21.7229 101.792 21.7229C102.8 21.7229 103.67 21.9765 104.414 22.4846C105.158 22.9927 105.738 23.7092 106.146 24.6343C106.563 25.5593 106.763 26.6568 106.763 27.9085C106.763 29.1603 106.554 30.2577 106.146 31.1827V31.2008ZM142.181 18.3124C141.165 17.7591 140.023 17.4866 138.753 17.4866C137.637 17.4866 136.612 17.686 135.687 18.0768C134.762 18.4667 133.973 19.0289 133.329 19.7636C132.912 20.2356 132.585 20.7608 132.332 21.333C132.001 20.3249 131.371 19.4423 130.527 18.8024C129.392 17.9225 128.059 17.4866 126.527 17.4866C125.583 17.4866 124.694 17.659 123.842 18.0127C122.989 18.3575 122.246 18.9017 121.601 19.6183C121.139 20.1354 120.758 20.7518 120.45 21.4593V17.8864H115.425V37.9938H120.64V26.0494C120.64 25.1334 120.812 24.3617 121.157 23.7363C121.502 23.11 121.964 22.6299 122.536 22.3122C123.116 21.9855 123.742 21.8221 124.431 21.8221C125.475 21.8221 126.318 22.1398 126.962 22.7842C127.605 23.4277 127.932 24.2895 127.932 25.3599V37.9848H132.975V25.7588C132.975 24.9881 133.13 24.2986 133.429 23.7002C133.728 23.101 134.164 22.6389 134.717 22.3122C135.27 21.9855 135.932 21.8131 136.703 21.8131C137.683 21.8131 138.517 22.1127 139.215 22.7201C139.914 23.3194 140.258 24.2625 140.258 25.5503V37.9848H145.456V24.6884C145.456 23.128 145.156 21.8131 144.567 20.7337C143.977 19.6634 143.17 18.8475 142.154 18.2943L142.181 18.3124ZM165.146 20.3439C164.286 19.417 163.238 18.6842 162.071 18.1941C160.875 17.6869 159.541 17.4324 158.072 17.4324C156.167 17.4324 154.481 17.8864 153.02 18.7844C151.55 19.6823 150.408 20.9332 149.574 22.5207C148.739 24.1081 148.322 25.9221 148.322 27.9627C148.322 30.0032 148.73 31.7991 149.537 33.3776C150.353 34.956 151.505 36.1988 152.992 37.0967C154.481 37.9938 156.24 38.4478 158.262 38.4478C159.858 38.4478 161.319 38.1572 162.644 37.5859C163.967 37.0146 165.056 36.2258 165.927 35.2187C166.797 34.2124 167.36 33.0419 167.614 31.7269H162.797C162.616 32.2621 162.335 32.7332 161.936 33.142C161.536 33.55 161.047 33.8767 160.448 34.1032C159.849 34.3297 159.169 34.4479 158.407 34.4479C157.337 34.4479 156.439 34.2214 155.695 33.7584C154.952 33.3054 154.38 32.661 153.99 31.8361C153.637 31.0916 153.446 30.2306 153.41 29.2686H167.813V27.8634C167.813 26.3301 167.577 24.924 167.114 23.6452C166.652 22.3663 165.99 21.2689 165.137 20.3439H165.146ZM153.455 25.831C153.537 25.1243 153.709 24.48 153.99 23.9177C154.38 23.138 154.934 22.5297 155.65 22.1037C156.367 21.6777 157.211 21.4684 158.172 21.4684C159.133 21.4684 160.013 21.6777 160.72 22.1037C161.428 22.5297 161.981 23.1289 162.371 23.9177C162.653 24.48 162.825 25.1243 162.906 25.831H153.455ZM181.481 17.7411C181.219 17.723 180.919 17.714 180.584 17.714C179.259 17.714 178.207 18.0127 177.418 18.612C176.629 19.2103 176.058 20.0993 175.686 21.2779H175.631V17.8864H170.607V37.9938H175.822V26.8562C175.822 25.8129 175.994 24.952 176.348 24.2534C176.693 23.5639 177.174 23.0468 177.781 22.7021C178.388 22.3573 179.078 22.1849 179.84 22.1849C180.621 22.1813 181.403 22.2174 182.18 22.2941V17.7772C181.98 17.7682 181.745 17.7501 181.472 17.7321L181.481 17.7411Z" fill="black"/>
</g>
<defs>
<clipPath id="clip0_271_2508">
<rect width="182.18" height="48.978" fill="white"/>
</clipPath>
</defs>
</svg>
