<svg width="177.121" height="30.464" overflow="visible" style="display: block;" viewBox="0 0 177.121 30.464" fill="none" xmlns="http://www.w3.org/2000/svg">
<g id="Gamma Logo" clip-path="url(#clip0_0_92)">
<path id="Vector" d="M7.528 2.297C5.231 3.605 3.381 5.423 2.041 7.656C0.686 9.905 0 12.393 0 15.041C0 17.689 0.686 20.177 2.026 22.426C3.382 24.675 5.216 26.477 7.513 27.785C9.81 29.093 12.362 29.763 15.121 29.763H26.254V11.819H13.335V18.055H19.428V23.127H15.345C13.894 23.127 12.538 22.76 11.326 22.026C10.114 21.292 9.125 20.303 8.407 19.091C7.689 17.863 7.338 16.507 7.338 15.056C7.338 13.605 7.705 12.233 8.407 11.021C9.125 9.793 10.098 8.804 11.326 8.086C12.538 7.352 13.894 6.985 15.345 6.985H26.271V0.319H15.138C12.379 0.319 9.827 0.989 7.53 2.297H7.528ZM42.681 0.032C35.87 0.032 30.336 5.582 30.336 12.409V29.762H37.035V21.053H48.327V29.762H55.026V12.409C55.026 5.582 49.492 0.032 42.681 0.032ZM48.328 14.833H37.036V12.393C37.036 9.267 39.572 6.731 42.682 6.731C45.792 6.731 48.328 9.267 48.328 12.393V14.833ZM91.934 0C86.814 0 82.651 4.179 82.651 9.315V21.15C82.651 22.538 81.535 23.654 80.147 23.654C78.759 23.654 77.643 22.538 77.643 21.15V9.331C77.643 4.195 73.48 0.016 68.36 0.016C63.24 0.016 59.077 4.195 59.077 9.331V29.779H65.872V9.331C65.872 7.943 66.988 6.827 68.376 6.827C69.764 6.827 70.88 7.943 70.88 9.331V21.15C70.88 26.286 75.043 30.465 80.163 30.465C85.283 30.465 89.446 26.286 89.446 21.15V9.315C89.446 7.927 90.562 6.811 91.95 6.811C93.338 6.811 94.454 7.927 94.454 9.315V29.778H101.249V9.315C101.249 4.179 97.086 0 91.966 0H91.934ZM164.776 0.048C157.965 0.048 152.431 5.598 152.431 12.425V29.778H159.13V21.069H170.422V29.778H177.121V12.425C177.121 5.599 171.586 0.048 164.776 0.048ZM170.423 14.865H159.131V12.425C159.131 9.299 161.667 6.763 164.777 6.763C167.887 6.763 170.423 9.299 170.423 12.425V14.865ZM139.081 0C133.961 0 129.798 4.179 129.798 9.315V21.15C129.798 22.538 128.682 23.654 127.294 23.654C125.906 23.654 124.79 22.538 124.79 21.15V9.315C124.79 4.179 120.627 0 115.507 0C110.387 0 106.224 4.179 106.224 9.315V29.778H113.019V9.315C113.019 7.927 114.135 6.811 115.523 6.811C116.911 6.811 118.027 7.927 118.027 9.315V21.15C118.027 26.286 122.19 30.465 127.31 30.465C132.43 30.465 136.593 26.286 136.593 21.15V9.315C136.593 7.927 137.709 6.811 139.097 6.811C140.485 6.811 141.601 7.927 141.601 9.315V29.778H148.396V9.315C148.396 4.179 144.233 0 139.113 0H139.081Z" fill="var(--fill-0, #092150)"/>
</g>
<defs>
<clipPath id="clip0_0_92">
<rect width="177.121" height="30.464" fill="white"/>
</clipPath>
</defs>
</svg>
