<svg width="171.144" height="36.8663" overflow="visible" style="display: block;" viewBox="0 0 171.144 36.8663" fill="none" xmlns="http://www.w3.org/2000/svg">
<g id="Group">
<path id="Vector" d="M17.4248 36.8399C21.2417 36.8399 25.2419 35.9943 26.8532 34.8218C27.8822 34.0879 28.3927 34.1597 29.3099 33.2823C29.5653 33.0271 29.6769 32.9513 29.7487 32.8795C33.2344 30.0159 35.2526 26.3108 35.2526 21.5049C35.2526 13.6878 29.7128 8.36745 21.7881 8.36745C14.8165 8.36745 9.49613 12.8065 9.49613 18.4937C9.49613 23.6666 13.5322 27.3717 19.2913 27.3717C19.6224 27.3717 19.77 27.1882 20.1369 27.1882C21.5329 27.1882 22.6695 26.7854 23.4033 26.0156C23.7702 25.6128 24.4682 24.8032 24.54 24.7673C24.871 24.4722 24.9428 24.0335 25.0186 23.85C25.0903 23.6666 25.2379 23.5548 25.3137 23.2996C25.3856 23.0045 25.2778 22.6376 25.2778 22.3105C25.2778 21.7242 25.5331 21.138 25.5331 20.5876C25.5331 19.0481 23.6984 17.5046 22.0473 17.5046C21.8638 17.5046 21.8638 17.357 21.7522 17.357C21.6405 17.357 21.5329 17.4687 21.4212 17.4687C21.3094 17.4687 21.1659 17.2853 21.0183 17.2853C20.8707 17.2853 20.7989 17.4329 20.5797 17.4329C20.101 17.4329 20.0651 17.5046 19.6982 17.5046C19.5866 17.5046 19.403 17.5405 19.3312 17.5764C19.1837 17.6482 19.1837 17.7599 19.0361 17.7599C18.8394 17.7599 18.741 17.7971 18.741 17.8715C18.741 18.2744 18.7769 18.2026 18.5935 18.2026C18.3967 18.2026 18.2744 18.2146 18.2266 18.2385C18.079 18.3102 18.1906 18.4937 18.043 18.6054C17.8955 18.6771 17.8596 18.7888 17.8237 19.0082C17.7878 19.2276 17.5685 19.3033 17.5685 19.5227C17.5685 19.6344 17.6043 19.7062 17.6043 19.778C17.6043 19.9973 17.1656 19.9256 17.1656 20.1449C17.1656 20.2925 17.2773 20.4001 17.2773 20.5477C17.2773 20.6594 17.2055 20.7312 17.2055 20.8428C17.2055 20.9545 17.2773 21.0263 17.2773 21.0981C17.2773 21.2815 17.0221 21.3175 17.0221 21.465C17.0221 21.6126 17.1696 21.7203 17.1696 21.832C17.1696 21.9038 17.0579 21.9436 17.0579 22.0513C17.0579 22.159 17.0221 21.9795 17.2414 22.3065C17.389 22.5259 17.389 22.6376 17.2414 22.821C17.0939 23.0045 16.8027 23.1161 16.4358 23.1161C14.8963 23.1161 14.7128 21.5367 13.8674 21.2815C13.612 21.2097 13.5721 21.1698 13.5721 21.0622C13.5721 20.9545 13.5721 20.9904 13.7197 20.8428C13.8672 20.6952 13.9032 20.5876 13.9032 20.4759C13.9032 20.3643 13.9032 20.3283 13.8314 20.2565C13.5363 19.778 13.3927 19.1917 13.3927 18.5336C13.3927 15.1596 17.5007 12.3318 21.3932 12.3318C22.5657 12.3318 22.3823 12.627 23.0803 12.627C23.2637 12.627 23.1919 12.627 23.4472 12.591C24.1093 12.4793 25.3177 12.7386 26.2709 13.2133C28.9111 14.5334 30.638 17.6522 30.638 21.2856C30.638 27.4873 25.1343 31.9981 17.7958 31.9981C13.7956 31.9981 11.0436 30.7498 8.32756 27.7067C8.03242 27.3756 8.47513 27.7785 7.99653 26.9369C7.41026 25.908 7.48205 26.57 7.48205 26.57C7.29858 26.3506 6.96755 25.7246 6.78409 25.5052C6.56474 25.2499 6.2696 25.2858 6.16192 25.1383C6.01435 24.9548 6.23371 24.6237 6.16192 24.4403C6.09013 24.1452 5.46396 23.7064 5.39218 23.4871C5.32039 23.2677 5.06115 21.8719 5.06115 21.6165C5.06115 21.3214 5.28051 21.2856 5.28051 21.1021C5.28051 20.8468 4.94947 20.771 4.76601 20.4041C4.58255 20.0372 4.47088 19.1917 4.47088 18.2744C4.47088 17.7958 4.47088 17.6124 4.61845 16.5116C4.65434 16.1446 5.20473 16.1446 5.20473 15.7418C5.20473 15.5942 5.13294 15.4107 5.13294 15.3031C5.13294 15.1555 5.13294 15.1197 5.16883 15.008C6.70832 8.55091 13.6081 3.74501 21.2775 3.74501C23.9178 3.74501 25.9359 4.2236 29.0547 5.54373C30.0837 5.98245 31.5873 5.21271 31.5873 4.40706C31.6591 4.15181 31.5155 4.07604 31.4756 3.92847C31.4398 3.78091 31.2922 3.59745 31.1446 3.56154C31.0728 3.52565 31.0329 3.41398 30.9611 3.30629C30.8494 3.12284 30.7418 3.05105 30.4467 2.97527C30.2991 2.93938 30.2273 2.90348 30.1516 2.82769C30.0398 2.68013 29.968 2.60834 29.8205 2.53256C29.6729 2.46078 29.5653 2.53256 29.4894 2.49667C29.4177 2.46078 29.3778 2.385 29.306 2.34911C29.27 2.31321 29.1943 2.31321 29.0866 2.31321C25.3856 0.331026 22.9646 0.0358924 19.738 0.0358924C12.7665 0.0358924 6.52884 3.04706 2.67614 8.29167C2.34512 8.73038 2.52858 9.46422 2.05398 9.90693C1.13666 10.7524 0 15.3749 0 18.3102C0 20.7671 0.58628 24.0335 1.35602 25.8322C2.85961 29.3538 2.20154 27.8862 2.42089 28.2172C2.85961 28.9151 3.22653 28.9869 3.40999 29.2063C3.40999 29.2063 3.52167 29.4256 3.52167 29.645C3.52167 29.7926 3.52167 29.8284 3.55756 29.9002C3.66924 30.1196 4.17973 30.4865 4.32731 30.6341C4.65833 30.9651 4.91358 31.6631 5.46396 32.2134C6.30948 33.059 7.51794 33.7171 11.3706 35.5158C12.7266 36.1379 11.9569 35.8109 12.1045 35.8468C12.4355 35.9585 12.8743 35.9585 13.1334 36.142C13.2811 36.2536 13.0976 36.2137 13.5003 36.2137C13.5721 36.2137 13.5721 36.2496 13.648 36.2855C13.7197 36.3215 13.7956 36.433 13.9032 36.433C13.975 36.433 14.0149 36.3612 14.1226 36.3972C14.2302 36.433 14.4895 36.6166 14.7089 36.7283C14.8923 36.8399 14.9282 36.8399 15.004 36.7641C15.2233 36.6166 15.3709 36.8 15.5902 36.8C15.6621 36.8 15.7738 36.7641 15.993 36.7641C16.2882 36.7641 16.2882 36.8359 17.4248 36.8359" fill="var(--fill-0, #292929)"/>
<path id="Vector_2" d="M160.721 25.3965C158.886 25.3965 157.454 24.5136 157.454 22.8956C157.454 21.5733 158.3 20.6544 160.462 20.0272C161.415 19.7315 163.398 19.2921 164.463 19.0724C164.902 18.9605 165.161 19.1443 165.161 19.5118V21.6812C165.161 24.3258 162.995 25.3926 160.721 25.3926M159.509 29.9548C161.527 29.9548 163.473 29.3676 164.499 28.5965C164.753 28.4128 164.866 28.3768 165.014 28.3768C165.232 28.3768 165.38 28.4886 165.527 28.8563C165.711 29.2597 165.823 29.4075 166.261 29.4075H170.409C170.849 29.4075 171.144 29.1119 171.144 28.6725C171.144 28.1571 170.924 27.0905 170.924 25.4764V15.0373C170.924 9.41233 167.55 7.06325 161.934 7.06325C157.016 7.06325 152.613 9.45228 152.173 13.3834C152.137 13.787 152.429 14.0466 152.836 14.0466H157.387C158.01 14.0466 158.233 13.8628 158.452 13.3115C158.891 12.2088 159.956 11.6935 161.791 11.6935C164.104 11.6935 165.093 12.7242 165.093 13.787C165.093 14.5219 164.726 15.0014 163.697 15.329C162.708 15.6606 161.348 15.8803 159.733 16.136C155.181 16.7592 151.512 18.561 151.512 23.0474C151.512 26.9785 154.743 29.9589 159.513 29.9589M149.162 29.4036H144.871C144.431 29.4036 144.136 29.1079 144.136 28.6685V0.735091C144.136 0.295636 144.431 2.67001e-06 144.871 2.67001e-06H149.162C149.602 2.67001e-06 149.896 0.295636 149.896 0.735091V28.6685C149.896 29.1079 149.602 29.4036 149.162 29.4036ZM131.253 25.2487C128.17 25.2487 126.005 22.6399 126.005 18.5609C126.005 14.482 128.17 11.9092 131.253 11.9092C134.336 11.9092 136.502 14.518 136.502 18.5609C136.502 22.604 134.336 25.2487 131.253 25.2487ZM131.253 30.1027C138.261 30.1027 142.518 24.8452 142.518 18.7088C142.518 12.5724 138.261 7.05926 131.253 7.05926C124.246 7.05926 119.99 12.6443 119.99 18.7088C119.99 24.7733 124.246 30.1027 131.253 30.1027ZM100.027 29.4036H104.318C104.757 29.4036 105.052 29.1079 105.052 28.6685V16.6873C105.052 13.8947 106.592 12.1289 109.089 12.1289C111.326 12.1289 112.611 13.4154 112.611 15.7326V28.6685C112.611 29.1079 112.906 29.4036 113.345 29.4036H117.636C118.075 29.4036 118.37 29.1079 118.37 28.6685V16.2439C118.37 10.0675 115.949 7.05525 110.919 7.05525C108.606 7.05525 106.883 7.8263 105.854 8.52543C105.523 8.74516 105.415 8.82106 105.268 8.82106C105.012 8.82106 104.901 8.67325 104.717 8.3057C104.534 7.90221 104.386 7.75439 103.912 7.75439H100.023C99.5839 7.75439 99.2888 8.05003 99.2888 8.48947V28.6685C99.2888 29.1079 99.5839 29.4036 100.023 29.4036M87.1115 25.3965C85.2768 25.3965 83.8448 24.5136 83.8448 22.8956C83.8448 21.5733 84.6904 20.6544 86.8522 20.0272C87.8055 19.7315 89.7879 19.2921 90.8528 19.0724C91.2915 18.9605 91.5508 19.1443 91.5508 19.5118V21.6812C91.5508 24.3258 89.385 25.3926 87.1115 25.3926M85.899 29.9548C87.9172 29.9548 89.8636 29.3676 90.8888 28.5965C91.144 28.4128 91.2557 28.3768 91.4032 28.3768C91.6226 28.3768 91.7702 28.4886 91.9178 28.8563C92.1012 29.2597 92.2129 29.4075 92.6517 29.4075H96.7998C97.2385 29.4075 97.5338 29.1119 97.5338 28.6725C97.5338 28.1571 97.3144 27.0905 97.3144 25.4764V15.0373C97.3144 9.41233 93.94 7.06325 88.324 7.06325C83.4061 7.06325 79.0026 9.45228 78.5639 13.3834C78.528 13.787 78.8192 14.0466 79.226 14.0466H83.7771C84.3993 14.0466 84.6226 13.8628 84.842 13.3115C85.2807 12.2088 86.3457 11.6935 88.1804 11.6935C90.4939 11.6935 91.483 12.7242 91.483 13.787C91.483 14.5219 91.1161 15.0014 90.087 15.329C89.0979 15.6606 87.7378 15.8803 86.1223 16.136C81.5713 16.7592 77.9017 18.561 77.9017 23.0474C77.9017 26.9785 81.1325 29.9589 85.9029 29.9589M71.3685 8.52543C71.0015 8.78112 70.8898 8.85703 70.7063 8.85703C70.4511 8.85703 70.3034 8.70921 70.12 8.3057C69.9365 7.90221 69.789 7.75439 69.3143 7.75439H65.4254C64.9867 7.75439 64.6915 8.05003 64.6915 8.48947V28.6685C64.6915 29.1079 64.9867 29.4036 65.4254 29.4036H69.7172C70.1559 29.4036 70.4511 29.1079 70.4511 28.6685V17.3465C70.4511 14.554 71.6636 13.0079 74.4157 13.0079H76.8727C77.2756 13.0079 77.5348 12.7522 77.5348 12.3447V8.08198C77.5348 7.53066 77.2397 7.31094 75.8117 7.31094C74.2721 7.31094 72.4374 7.79034 71.3724 8.52543M52.0317 23.8185C49.096 23.8185 47.0419 21.4654 47.0419 17.754C47.0419 14.0426 49.096 11.7255 52.0317 11.7255C54.9672 11.7255 57.0214 14.0786 57.0214 17.754C57.0214 21.4294 54.9314 23.8185 52.0317 23.8185ZM51.8482 36.8663C59.1872 36.8663 62.7849 32.8952 62.7849 25.768V8.48947C62.7849 8.05003 62.4898 7.75439 62.0511 7.75439H58.0145C57.5359 7.75439 57.3923 7.90221 57.2089 8.3057C57.0254 8.67325 56.9137 8.82106 56.6584 8.82106C56.5109 8.82106 56.4031 8.74916 55.9963 8.52543C54.1616 7.53466 52.5461 7.20307 50.7872 7.20307C44.549 7.20307 41.027 11.9812 41.027 17.8979C41.027 23.8145 44.549 28.5926 50.7872 28.5926C52.8772 28.5926 55.043 27.7096 55.9963 26.9746C56.2157 26.8267 56.3274 26.7907 56.435 26.7907C56.6544 26.7907 56.8021 26.9386 56.8021 27.2702C56.8021 30.5062 55.0391 32.4518 51.92 32.4518C49.9736 32.4518 48.9484 31.7886 48.398 30.9456C48.1029 30.5062 47.9593 30.3224 47.3689 30.3224H43.1131C42.7103 30.3224 42.451 30.5781 42.451 30.9856C42.451 33.4865 45.275 36.8663 51.8442 36.8663" fill="var(--fill-0, #292929)"/>
</g>
</svg>
