<svg width="159.496" height="38.2089" overflow="visible" style="display: block;" viewBox="0 0 159.496 38.2089" fill="none" xmlns="http://www.w3.org/2000/svg">
<g id="Gumloop Logo">
<path id="Vector" d="M53.6618 26.0813L53.9701 30.2393C53.2383 30.4704 52.3523 30.6244 51.197 30.6244C48.8089 30.6244 47.3064 29.5079 46.7672 27.3903C45.7275 29.3153 43.9171 30.6244 41.1821 30.6244C36.9069 30.6244 34.5188 27.5443 34.5188 23.6943V11.5668H39.8341V22.4623C39.8341 24.6568 40.9513 26.0428 42.877 26.0428C45.0339 26.0428 46.536 24.4643 46.536 22.1158V11.5668H51.8132V25.1188C51.8132 25.8503 52.1982 26.2738 52.7377 26.2738C53.0456 26.2738 53.2383 26.2353 53.6618 26.0813ZM79.0783 11.3742C83.2768 11.3742 85.5108 14.3388 85.5108 18.5353V30.4319H80.1955V19.6903C80.1955 17.3033 79.0012 15.9558 77.0756 15.9558C74.9568 15.9558 73.4932 17.5343 73.4932 19.8828V30.4319H68.2164V19.6903C68.2164 17.3418 67.0607 15.9558 65.0965 15.9558C62.9782 15.9558 61.5142 17.5343 61.5142 19.8828V30.4319H56.2374V11.5668H61.3219L61.476 14.3003C62.5543 12.5678 64.4032 11.3742 67.0222 11.3742C70.0654 11.3742 72.0681 12.9528 72.9541 15.3013C73.9171 13.0298 75.9584 11.3742 79.0783 11.3742ZM95.8703 26.0813L96.1782 30.2393C95.4464 30.4704 94.5604 30.6244 93.4051 30.6244C90.3237 30.6244 88.7445 28.7763 88.7445 25.4268V3.09668H94.0213V25.1188C94.0213 25.8503 94.4063 26.2738 94.9458 26.2738C95.2537 26.2738 95.4464 26.2353 95.8703 26.0813ZM106.978 11.3742C112.833 11.3742 116.685 15.2628 116.685 20.9223C116.685 26.5818 112.833 30.6244 106.978 30.6244C101.2 30.6244 97.3102 26.7743 97.3102 21.1148C97.3102 15.4168 101.2 11.3742 106.978 11.3742ZM106.978 15.7248C104.359 15.7248 102.626 17.8423 102.626 21.0378C102.626 24.1563 104.359 26.2738 106.978 26.2738C109.674 26.2738 111.33 24.1563 111.33 21.0378C111.33 17.8423 109.674 15.7248 106.978 15.7248ZM127.902 11.3742C133.757 11.3742 137.609 15.2628 137.609 20.9223C137.609 26.5818 133.757 30.6244 127.902 30.6244C122.125 30.6244 118.235 26.7743 118.235 21.1148C118.235 15.4168 122.125 11.3742 127.902 11.3742ZM127.902 15.7248C125.283 15.7248 123.55 17.8423 123.55 21.0378C123.55 24.1563 125.283 26.2738 127.902 26.2738C130.599 26.2738 132.255 24.1563 132.255 21.0378C132.255 17.8423 130.599 15.7248 127.902 15.7248ZM151.292 11.3742C156.068 11.3742 159.496 14.7238 159.496 20.6913C159.496 26.5433 156.222 30.6244 151.099 30.6244C148.326 30.6244 146.477 29.4693 145.437 27.7369V38.2089H140.16V11.5282H145.283L145.399 14.3003C146.477 12.6063 148.441 11.3742 151.292 11.3742ZM149.905 26.1968C152.409 26.1968 154.142 24.1178 154.142 20.9223C154.142 17.8038 152.524 15.8018 149.944 15.8018C147.016 15.8018 145.437 18.2658 145.437 20.3833V21.5768C145.437 23.8483 147.093 26.1968 149.905 26.1968Z" fill="var(--fill-0, black)"/>
<path id="Vector_2" d="M10.1853 0.99163C10.9057 0.685111 12.2565 0.315519 13.2381 0.16226C13.9765 0.0360744 14.796 0.00903704 16.9752 0H27.4833H33.2464C32.834 4.95611 28.3186 4.98833 27.4833 5.0753C26.648 5.16222 20.1721 5.0753 20.1721 5.0753C14.3907 5.14741 13.6343 5.23756 11.8783 5.97674C9.38388 7.03148 7.50178 8.81637 6.3131 11.2503C5.60167 12.7017 5.4396 13.3778 5.34953 15.3791C5.21446 18.0114 6.03394 20.3101 7.87999 22.5457C8.83456 23.6996 10.7797 25.0248 12.2925 25.5476C13.5623 25.9894 13.8954 26.0434 15.3993 26.0975C16.6961 26.1426 17.0022 26.1246 17.8127 25.9533C18.8483 25.7369 19.7939 25.3854 20.8475 24.8264C22.6935 23.8439 24.2875 22.1311 25.224 20.1298C26.1065 18.2367 26.4307 15.6225 25.8904 14.7661C25.7733 14.5768 25.5572 14.3424 25.4131 14.2432C24.8188 13.8105 24.7467 13.8105 19.8479 13.8556L15.2462 13.9097L14.868 14.1621C14.6609 14.2973 14.3727 14.6038 14.2197 14.8292C13.8774 15.3791 13.8774 15.8298 14.2107 16.4879C14.4088 16.8935 14.5348 17.0197 14.9401 17.2181L15.4354 17.4705H18.9744H22.5134V17.6868C22.5134 17.9302 22.0632 18.9489 21.712 19.4988C20.2982 21.7254 17.6056 23.0145 15.0301 22.699C13.2921 22.4917 11.9053 21.8246 10.7346 20.6346C9.63603 19.5258 8.99663 18.2728 8.7715 16.7944C8.38429 14.2973 9.35687 11.7371 11.2479 10.2317C12.1845 9.50148 12.8329 9.15893 13.8774 8.85245L14.7239 8.60004L19.6768 8.62707C22.5585 8.63607 24.8728 8.68115 25.215 8.74426C25.9714 8.86144 26.98 9.15893 27.3762 9.3843C28.1867 9.83504 28.5199 10.0424 28.727 10.2317C28.8531 10.3489 28.9702 10.439 29.0062 10.439C29.1052 10.439 29.6906 11.025 29.8977 11.3405C30.0148 11.5118 30.1408 11.674 30.1679 11.7011C30.438 11.9445 31.1584 13.7474 31.3115 14.5407C31.5547 15.8388 31.2935 18.7506 30.7892 20.3281C29.7987 23.4472 27.7184 26.4401 25.3051 28.234C22.3964 30.3885 19.2716 31.4431 15.8046 31.4431C13.148 31.4431 10.9598 30.9383 8.73548 29.8206C4.91729 27.9005 2.09867 24.6552 0.828952 20.7158C0.405689 19.3906 0.315649 19.012 0.135532 17.7409C-0.323747 14.4506 0.396686 10.8357 2.10767 7.91489C3.46746 5.58011 5.47562 3.55181 7.78995 2.18156C8.69946 1.64067 8.87958 1.55056 9.45591 1.29811C9.62703 1.226 9.96021 1.09078 10.1853 0.99163Z" fill="var(--fill-0, black)"/>
</g>
</svg>
