<svg width="198" height="32" overflow="visible" style="display: block;" viewBox="0 0 198 32" fill="none" xmlns="http://www.w3.org/2000/svg">
<g id="Intercom Fin Logo" clip-path="url(#clip0_0_182)">
<path id="Vector" d="M15.8042 31.3267C11.9087 31.3274 8.01355 31.3318 4.11805 31.3254C2.14802 31.3222 0.634397 30.2528 0.146006 28.5165C0.0500724 28.1754 0.00646617 27.809 0.00614316 27.4544C-0.00160907 19.5562 5.98165e-06 11.6582 0.000328991 3.76032C0.000328991 1.86944 1.62636 0.153922 3.53631 0.0297615C3.73916 0.0166415 3.94298 0.0134415 4.14648 0.0131215C11.879 0.0102415 19.6115 0.0128015 27.3441 1.51688e-06C28.5424 -0.00191848 29.6051 0.280642 30.4853 1.12864C31.2706 1.88544 31.6478 2.81024 31.6488 3.87488C31.6575 11.7872 31.6633 19.6998 31.6501 27.6122C31.6469 29.5126 29.9753 31.2422 28.0563 31.2835C25.2813 31.343 22.5047 31.3178 19.7288 31.3258C18.4206 31.3296 17.1124 31.3264 15.8042 31.327V31.3267ZM15.7984 27.1315C15.9286 27.1315 16.0591 27.1318 16.1892 27.1315C18.3696 27.1222 20.4975 26.7872 22.5616 26.0912C24.093 25.5747 25.5581 24.913 26.844 23.9251C27.0905 23.736 27.3134 23.4374 27.4025 23.1459C27.5282 22.7357 27.357 22.3507 26.9674 22.1078C26.521 21.8294 26.0827 21.8774 25.6696 22.1786C24.466 23.0557 23.143 23.6979 21.7269 24.1584C19.4061 24.9133 17.0236 25.1299 14.5923 24.9955C11.4362 24.8211 8.5126 23.9802 5.9114 22.1558C5.78478 22.0669 5.63588 21.991 5.486 21.9558C4.99438 21.84 4.50954 22.0829 4.29506 22.5302C4.05927 23.0218 4.1917 23.4954 4.72337 23.879C8.02421 26.2611 11.7986 27.0822 15.7987 27.1318L15.7984 27.1315ZM16.8795 12.7626H16.8776C16.8776 10.4179 16.8782 8.0736 16.8763 5.72896C16.8763 5.5136 16.8711 5.29696 16.8495 5.08288C16.7791 4.39424 16.0952 3.9856 15.4473 4.23872C14.9557 4.43072 14.7512 4.768 14.7512 5.4064C14.7506 10.2682 14.7509 15.1299 14.7528 19.9917C14.7528 20.1782 14.7567 20.3674 14.7887 20.5504C14.8659 20.9946 15.2263 21.3213 15.674 21.3754C16.1369 21.4314 16.5743 21.2259 16.7455 20.8083C16.8401 20.5773 16.8731 20.3075 16.874 20.055C16.8831 17.6243 16.8795 15.1933 16.8795 12.7626ZM11.5973 12.719C11.5973 10.4186 11.6012 8.11776 11.5951 5.81728C11.5931 5.1472 11.1548 4.6896 10.5447 4.68448C9.92544 4.67936 9.47904 5.1232 9.4784 5.7984C9.47323 10.3997 9.47452 15.001 9.4855 19.6019C9.48615 19.8208 9.55107 20.0637 9.66057 20.2534C9.89798 20.6643 10.3867 20.8272 10.8283 20.6947C11.3118 20.5494 11.5957 20.168 11.5967 19.6211C11.6009 17.3206 11.5983 15.0198 11.598 12.7194L11.5973 12.719ZM22.1614 12.7018C22.1614 12.5869 22.1614 12.4717 22.1614 12.3568C22.161 10.1718 22.1639 7.98688 22.1581 5.80192C22.1562 5.1616 21.7256 4.70656 21.1339 4.68608C20.5308 4.66528 20.0941 5.08128 20.0424 5.73088C20.0311 5.87392 20.034 6.01824 20.034 6.16192C20.0347 10.503 20.0356 14.8442 20.0379 19.1853C20.0379 19.4006 20.0305 19.6195 20.066 19.8304C20.0935 19.9936 20.1548 20.1661 20.2501 20.3005C20.5179 20.6781 20.9843 20.8211 21.4029 20.6845C21.8939 20.5242 22.1585 20.1603 22.1594 19.6019C22.1636 17.3021 22.161 15.0019 22.1614 12.7021V12.7018ZM25.3091 12.5261H25.3068C25.3068 14.0221 25.3059 15.5178 25.3072 17.0138C25.3078 17.7738 25.738 18.2666 26.3873 18.2576C27.0359 18.2486 27.44 17.7882 27.4429 17.039C27.4471 15.9891 27.4442 14.9389 27.4439 13.889C27.4439 11.9184 27.4445 9.94784 27.4416 7.97728C27.4406 7.3888 27.1968 6.99712 26.7526 6.84672C25.978 6.58432 25.3165 7.08128 25.311 7.95168C25.3017 9.47616 25.3084 11.001 25.3084 12.5258L25.3091 12.5261ZM6.31452 12.505H6.30903C6.30903 10.9946 6.30644 9.48448 6.31032 7.97408C6.31161 7.47392 6.16141 7.06176 5.66527 6.8544C4.93818 6.5504 4.19558 7.08 4.19396 7.91232C4.18815 10.6739 4.1917 13.4355 4.1917 16.1971C4.1917 16.5568 4.1762 16.9174 4.19816 17.2755C4.22271 17.6784 4.4317 17.9856 4.80251 18.1581C5.17268 18.3302 5.54511 18.2992 5.87652 18.0611C6.20793 17.8227 6.31807 17.4774 6.31646 17.0787C6.31064 15.5542 6.3142 14.0294 6.3142 12.5046L6.31452 12.505Z" fill="var(--fill-0, #16100E)"/>
<path id="Vector_2" d="M39.9928 0H45.9562V6.3104H39.9928V0ZM40.0832 9.84608H45.8657V31.3286H40.0832V9.84608Z" fill="var(--fill-0, #16100E)"/>
<path id="Vector_3" d="M49.0141 9.84608H54.5708L54.7065 13.8291H54.8874C55.8361 11.3674 57.3723 9.17472 61.3476 9.17472C65.3229 9.17472 68.1692 10.9648 68.1692 16.6042V31.3286H62.3867V17.6336C62.3867 15.5299 61.98 13.695 59.3146 13.695C55.5651 13.695 54.7969 18.081 54.7969 20.6768V31.3286H49.0144V9.84608H49.0141Z" fill="var(--fill-0, #16100E)"/>
<path id="Vector_4" d="M72.8671 26.2269V14.1427H69.072V10.3386C74.0864 10.1146 74.6288 7.38432 74.8998 3.62496H78.5588V9.84608H83.1672V14.1427H78.6496V25.5107C78.6496 26.137 78.9206 26.4054 79.5534 26.4054H83.1675V31.3286H77.5204C74.0419 31.3286 72.8671 29.4938 72.8671 26.2266V26.2269Z" fill="var(--fill-0, #16100E)"/>
<path id="Vector_5" d="M83.393 20.6323C83.393 14.2768 87.73 9.17504 94.416 9.17504C101.102 9.17504 105.168 13.8294 105.168 21.08H89.4013C89.4013 24.8842 91.0725 27.8378 94.6418 27.8378C97.8489 27.8378 99.2043 25.1526 99.4301 22.5123L104.897 23.7206C103.812 28.3754 100.289 32.0003 94.5962 32.0003C87.7746 32.0003 83.3923 27.0326 83.3923 20.6326L83.393 20.6323ZM99.2502 18.0365C98.7983 14.6797 96.7653 13.2474 94.416 13.2474C92.0668 13.2474 90.0341 14.7693 89.5825 18.0365H99.2502Z" fill="var(--fill-0, #16100E)"/>
<path id="Vector_6" d="M107.11 9.84608H112.667L112.803 14.993H112.984C113.661 11.7258 115.333 9.488 118.585 9.488C119.218 9.488 119.579 9.5328 120.031 9.62272V15.3066C119.398 15.1722 118.947 15.0826 118.134 15.0826C113.977 15.0826 112.893 18.887 112.893 23.0045V31.329H107.111V9.84608H107.11Z" fill="var(--fill-0, #16100E)"/>
<path id="Vector_7" d="M119.972 20.6323C119.972 14.0979 124.218 9.17504 131.085 9.17504C137.094 9.17504 140.437 12.7107 141.295 17.1414L135.648 18.9763C135.422 15.4858 134.022 13.3373 131.085 13.3373C128.42 13.3373 126.296 15.6198 126.296 20.6323C126.296 25.6448 128.556 27.8378 131.176 27.8378C134.248 27.8378 135.784 25.2419 136.19 21.6618L141.656 22.7357C140.888 28.2406 137.094 32 131.176 32C124.173 32 119.972 27.1664 119.972 20.6323Z" fill="var(--fill-0, #16100E)"/>
<path id="Vector_8" d="M142.361 20.5875C142.361 14.1875 146.608 9.17504 153.339 9.17504C160.07 9.17504 164.317 14.1875 164.317 20.5875C164.317 26.9875 160.07 32 153.339 32C146.607 32 142.361 26.9875 142.361 20.5875ZM157.992 20.5875C157.992 15.7091 156.185 13.3373 153.339 13.3373C150.492 13.3373 148.685 15.7091 148.685 20.5875C148.685 25.4659 150.493 27.8378 153.339 27.8378C156.185 27.8378 157.992 25.4659 157.992 20.5875Z" fill="var(--fill-0, #16100E)"/>
<path id="Vector_9" d="M166.376 9.84608H171.933L172.069 13.8291H172.25C173.153 11.0544 174.87 9.17472 178.619 9.17472C181.782 9.17472 184.086 10.5171 184.809 13.8739H184.989C185.893 11.3229 187.519 9.17472 191.404 9.17472C195.29 9.17472 198 10.9648 198 16.6042V31.3286H192.218V17.6336C192.218 15.5747 191.766 13.695 189.327 13.695C185.802 13.695 185.08 18.081 185.08 20.6768V31.3286H179.297V17.6336C179.297 15.5747 178.846 13.695 176.406 13.695C172.882 13.695 172.16 18.081 172.16 20.6768V31.3286H166.377V9.84608H166.376Z" fill="var(--fill-0, #16100E)"/>
</g>
<defs>
<clipPath id="clip0_0_182">
<rect width="198" height="32" fill="white"/>
</clipPath>
</defs>
</svg>
