<svg width="163.446" height="41.972" overflow="visible" style="display: block;" viewBox="0 0 163.446 41.972" fill="none" xmlns="http://www.w3.org/2000/svg">
<g id="Linear Logo" clip-path="url(#clip0_0_69)">
<path id="Vector" d="M1.304 16.824L24.477 40.632C24.815 40.98 24.652 41.57 24.182 41.66C23.398 41.81 22.598 41.915 21.785 41.971C21.611 41.983 21.442 41.916 21.319 41.789L0.178 20.068C0.055 19.942 -0.011 19.768 0.001 19.589C0.055 18.754 0.157 17.932 0.303 17.126C0.391 16.643 0.965 16.476 1.304 16.824ZM0.651 26.463C0.497 25.87 1.178 25.496 1.6 25.93L15.613 40.327C16.035 40.761 15.671 41.461 15.095 41.302C8.069 39.367 2.535 33.682 0.651 26.463ZM2.682 10.52C2.879 10.17 3.344 10.116 3.622 10.402L30.727 38.25C31.005 38.536 30.953 39.014 30.612 39.216C30.039 39.556 29.447 39.868 28.841 40.151C28.613 40.258 28.345 40.204 28.168 40.022L1.897 13.032C1.72 12.85 1.668 12.575 1.771 12.34C2.047 11.717 2.351 11.109 2.682 10.52ZM20.402 0C31.695 0 40.849 9.406 40.85 21.009C40.85 27.168 38.271 32.709 34.16 36.552C33.923 36.774 33.559 36.759 33.332 36.526L5.3 7.725C5.073 7.492 5.059 7.118 5.275 6.874C9.015 2.651 14.407 0 20.402 0Z" fill="var(--fill-0, #222326)"/>
<path id="Vector_2" d="M82.378 11.562C83.844 11.562 85.032 10.337 85.032 8.825C85.032 7.313 83.844 6.089 82.378 6.089C80.912 6.089 79.724 7.314 79.724 8.825C79.724 10.303 80.861 11.508 82.283 11.56L82.378 11.562ZM59.649 35.427V6.09H64.364V31.135H77.08V35.427H59.649ZM93.214 23.456V35.427H88.651V14.635H93.156V18.199L93.213 18.159C93.671 17.044 94.409 16.111 95.428 15.363C96.446 14.602 97.744 14.221 99.323 14.221C100.723 14.221 101.996 14.543 103.142 15.186C104.287 15.816 105.204 16.742 105.891 17.962C106.578 19.183 106.922 20.68 106.922 22.452V35.427H102.36V23.102C102.36 21.527 101.952 20.332 101.137 19.518C100.335 18.691 99.26 18.278 97.91 18.278C97.044 18.278 96.256 18.462 95.543 18.829C94.83 19.197 94.264 19.761 93.844 20.522C93.424 21.283 93.214 22.261 93.214 23.456ZM140.335 14.222C141.608 14.222 142.753 14.393 143.771 14.734C144.79 15.062 145.655 15.535 146.368 16.151C147.094 16.768 147.648 17.496 148.029 18.336C148.411 19.176 148.602 20.102 148.602 21.112V35.426H144.23V32.493H144.153C143.847 33.084 143.434 33.628 142.912 34.127C142.403 34.626 141.754 35.026 140.964 35.328C140.175 35.617 139.227 35.761 138.12 35.761C136.771 35.761 135.574 35.531 134.53 35.072C133.487 34.6 132.659 33.904 132.048 32.985C131.437 32.053 131.132 30.898 131.132 29.519C131.132 28.325 131.348 27.347 131.781 26.586C132.214 25.825 132.799 25.214 133.537 24.755C134.288 24.296 135.141 23.947 136.096 23.711C137.051 23.475 138.043 23.298 139.074 23.179L139.919 23.08C140.787 22.977 141.498 22.885 142.053 22.804C142.791 22.699 143.313 22.535 143.618 22.312C143.936 22.089 144.095 21.741 144.095 21.269V21.111C144.095 20.481 143.942 19.93 143.636 19.457C143.331 18.984 142.891 18.61 142.319 18.335C141.759 18.059 141.078 17.922 140.276 17.922C139.474 17.922 138.768 18.06 138.157 18.335C137.546 18.597 137.062 18.965 136.706 19.438C136.349 19.911 136.146 20.449 136.095 21.053H131.684C131.748 19.767 132.136 18.612 132.849 17.588C133.562 16.564 134.549 15.75 135.809 15.147C137.082 14.53 138.59 14.221 140.334 14.221L140.335 14.222ZM144.115 25.386C143.991 25.479 143.801 25.568 143.546 25.651L143.447 25.682C143.155 25.774 142.798 25.866 142.378 25.957L141.023 26.213C140.539 26.292 140.042 26.371 139.533 26.45C138.833 26.542 138.184 26.706 137.586 26.942C136.988 27.178 136.504 27.5 136.135 27.906C135.778 28.313 135.601 28.845 135.601 29.501C135.601 30.341 135.925 31.004 136.575 31.489C137.224 31.962 138.096 32.198 139.191 32.198C140.272 32.198 141.183 31.995 141.921 31.588C142.659 31.168 143.206 30.624 143.562 29.954C143.932 29.272 144.116 28.524 144.116 27.71L144.115 25.386ZM152.583 35.427V14.636H156.974V18.062H157.031C157.4 16.881 157.979 15.982 158.768 15.365C159.57 14.735 160.62 14.42 161.918 14.42C162.236 14.42 162.523 14.433 162.777 14.46L163.253 14.486C163.322 14.49 163.387 14.495 163.446 14.499V18.732L163.343 18.717C163.17 18.694 162.911 18.666 162.568 18.634C162.148 18.594 161.702 18.575 161.231 18.575C160.48 18.575 159.793 18.752 159.169 19.107C158.545 19.461 158.049 20.006 157.68 20.741C157.323 21.463 157.145 22.375 157.145 23.478V35.429H152.583V35.427ZM80.088 35.427V14.635H84.65V35.427H80.088ZM119.513 14.163C120.952 14.163 122.256 14.425 123.427 14.951C124.611 15.476 125.623 16.224 126.463 17.196C127.303 18.154 127.953 19.296 128.411 20.622C128.869 21.934 129.098 23.392 129.098 24.993V26.253H114.421C114.456 27.338 114.664 28.309 115.046 29.167C115.466 30.099 116.077 30.827 116.879 31.352C117.693 31.877 118.667 32.14 119.8 32.14C120.64 32.14 121.378 32.009 122.015 31.746C122.651 31.484 123.18 31.123 123.6 30.663C124.033 30.191 124.344 29.646 124.536 29.029H128.832C128.577 30.381 128.024 31.576 127.171 32.613C126.318 33.637 125.249 34.444 123.964 35.035C122.691 35.612 121.278 35.901 119.725 35.901C117.714 35.901 115.976 35.435 114.513 34.503C113.05 33.571 111.923 32.291 111.133 30.664C110.344 29.023 109.949 27.153 109.949 25.053C109.949 22.94 110.356 21.063 111.171 19.422C111.986 17.781 113.112 16.495 114.551 15.563C115.989 14.631 117.644 14.165 119.515 14.165L119.513 14.163ZM119.571 17.943C118.528 17.943 117.617 18.186 116.841 18.671C116.078 19.157 115.479 19.846 115.047 20.739C114.738 21.385 114.543 22.121 114.461 22.944H124.702C124.62 22.12 124.425 21.385 124.117 20.739C123.697 19.846 123.098 19.157 122.322 18.671C121.546 18.185 120.63 17.943 119.573 17.943H119.571Z" fill="var(--fill-0, #222326)"/>
</g>
<defs>
<clipPath id="clip0_0_69">
<rect width="163.446" height="41.972" fill="white"/>
</clipPath>
</defs>
</svg>
