<svg width="166" height="29" viewBox="0 0 166 29" fill="none" xmlns="http://www.w3.org/2000/svg">
<g clip-path="url(#clip0_171_5873)">
<path d="M155.568 28.0228C153.525 28.0228 151.75 27.6333 150.243 26.8544C148.736 26.0626 147.561 24.8752 146.719 23.2918C145.889 21.7085 145.474 19.7483 145.474 17.4116C145.474 15.1897 145.908 13.2743 146.776 11.6654C147.644 10.0437 148.845 8.81151 150.377 7.96875C151.909 7.12598 153.652 6.70459 155.606 6.70459C157.483 6.70459 159.149 7.11322 160.605 7.93043C162.061 8.74767 163.191 9.93519 163.995 11.493C164.812 13.0509 165.221 14.9152 165.221 17.086C165.221 17.8649 165.215 18.4842 165.202 18.9438H149.936V14.9216H161.505L159.322 15.6686C159.322 14.6215 159.169 13.7468 158.862 13.0445C158.568 12.3294 158.134 11.7931 157.56 11.4356C156.985 11.0781 156.289 10.8993 155.472 10.8993C154.616 10.8993 153.863 11.11 153.212 11.5313C152.573 11.94 152.075 12.5529 151.718 13.3701C151.373 14.1873 151.2 15.1706 151.2 16.3198V18.2927C151.2 19.4675 151.379 20.4634 151.737 21.2806C152.094 22.0978 152.605 22.7171 153.269 23.1386C153.933 23.5472 154.718 23.7514 155.625 23.7514C156.621 23.7514 157.445 23.496 158.096 22.9854C158.747 22.4618 159.156 21.7275 159.322 20.7826H165.125C164.947 22.2639 164.442 23.5472 163.612 24.6325C162.795 25.7179 161.703 26.5544 160.337 27.1418C158.971 27.7291 157.381 28.0228 155.568 28.0228Z" fill="black"/>
<path d="M137.934 0.000488281H143.738V27.467H137.934V0.000488281Z" fill="black"/>
<path d="M128.058 28.0224C126.96 28.0224 125.977 27.8309 125.108 27.448C124.253 27.0648 123.525 26.4903 122.925 25.7241C122.325 24.9452 121.878 23.9874 121.584 22.8509L122.197 23.0233V27.467H116.451V7.25979H122.255V11.7801L121.603 11.895C121.897 10.8096 122.344 9.88386 122.944 9.11771C123.557 8.33879 124.304 7.74502 125.185 7.33639C126.066 6.91502 127.056 6.70432 128.154 6.70432C129.801 6.70432 131.231 7.13209 132.444 7.98763C133.657 8.84316 134.59 10.0754 135.241 11.6843C135.892 13.2805 136.218 15.1767 136.218 17.373C136.218 19.5566 135.886 21.4527 135.222 23.0616C134.558 24.6579 133.606 25.8837 132.368 26.7391C131.142 27.5948 129.705 28.0224 128.058 28.0224ZM126.258 23.598C127.126 23.598 127.854 23.3426 128.441 22.8318C129.041 22.3211 129.488 21.5995 129.782 20.6675C130.088 19.7354 130.242 18.6372 130.242 17.373C130.242 16.1088 130.088 15.0107 129.782 14.0785C129.488 13.1464 129.041 12.4249 128.441 11.9142C127.854 11.3906 127.126 11.1289 126.258 11.1289C125.402 11.1289 124.668 11.3906 124.055 11.9142C123.455 12.4249 123.001 13.1528 122.695 14.0977C122.389 15.0299 122.235 16.1216 122.235 17.373C122.235 18.6372 122.389 19.7354 122.695 20.6675C123.001 21.5995 123.455 22.3211 124.055 22.8318C124.668 23.3426 125.402 23.598 126.258 23.598ZM116.451 0.000488281H122.255V7.25979H116.451V0.000488281Z" fill="black"/>
<path d="M101.884 28.0228C100.619 28.0228 99.483 27.7738 98.4743 27.2757C97.4783 26.7778 96.6929 26.0692 96.1184 25.1496C95.5564 24.2175 95.2756 23.1323 95.2756 21.8936C95.2756 20.0037 95.8311 18.5608 96.9419 17.5648C98.0528 16.556 99.6554 15.8984 101.75 15.592L105.255 15.094C105.957 14.9918 106.513 14.8641 106.921 14.7109C107.33 14.5577 107.63 14.3533 107.821 14.098C108.013 13.8298 108.109 13.4914 108.109 13.0828C108.109 12.6614 107.994 12.2784 107.764 11.9336C107.547 11.5761 107.215 11.2951 106.768 11.0908C106.334 10.8737 105.804 10.7652 105.178 10.7652C104.182 10.7652 103.384 11.027 102.784 11.5505C102.184 12.0613 101.858 12.7636 101.807 13.6574H95.8118C95.863 12.3039 96.2716 11.1036 97.0378 10.0565C97.8167 8.99667 98.8956 8.17305 100.275 7.58566C101.654 6.99828 103.25 6.70459 105.063 6.70459C106.966 6.70459 108.575 7.01745 109.89 7.64313C111.205 8.25605 112.195 9.13713 112.859 10.2864C113.536 11.4356 113.874 12.8083 113.874 14.4044V22.832C113.874 23.7387 113.938 24.5815 114.066 25.3604C114.206 26.1265 114.404 26.6117 114.659 26.8161V27.4674H108.626C108.485 26.9183 108.377 26.299 108.3 25.6094C108.223 24.9198 108.179 24.192 108.166 23.426L109.105 23.0237C108.862 23.9302 108.415 24.7666 107.764 25.5328C107.125 26.2861 106.302 26.8927 105.293 27.3523C104.297 27.7994 103.16 28.0228 101.884 28.0228ZM104.029 23.7707C104.846 23.7707 105.568 23.5919 106.193 23.2343C106.819 22.864 107.298 22.3532 107.63 21.7021C107.975 21.0508 108.147 20.3103 108.147 19.4802V16.837L108.626 17.1051C108.319 17.5137 107.936 17.8266 107.477 18.0437C107.03 18.2608 106.423 18.4459 105.657 18.5991L104.182 18.8864C103.199 19.0779 102.458 19.3716 101.96 19.7675C101.475 20.1634 101.232 20.7188 101.232 21.4338C101.232 22.149 101.494 22.7171 102.018 23.1386C102.541 23.5599 103.212 23.7707 104.029 23.7707Z" fill="black"/>
<path d="M75.5363 7.26025H81.7038L87.0093 24.5945H85.1515L90.2462 7.26025H96.2415L89.2503 27.4675H82.7954L75.5363 7.26025Z" fill="black"/>
<path d="M66.4639 28.0228C64.459 28.0228 62.6969 27.5886 61.1774 26.7203C59.6705 25.8521 58.5022 24.6134 57.6722 23.0045C56.855 21.3955 56.4464 19.5121 56.4464 17.3541C56.4464 15.1961 56.855 13.319 57.6722 11.7229C58.5022 10.114 59.6705 8.87536 61.1774 8.00705C62.6969 7.13876 64.459 6.70459 66.4639 6.70459C68.4685 6.70459 70.2243 7.13876 71.7311 8.00705C73.2378 8.87536 74.3999 10.114 75.2171 11.7229C76.0471 13.319 76.4621 15.1961 76.4621 17.3541C76.4621 19.5121 76.0471 21.3955 75.2171 23.0045C74.3999 24.6134 73.2378 25.8521 71.7311 26.7203C70.2243 27.5886 68.4685 28.0228 66.4639 28.0228ZM66.4639 23.5792C67.3066 23.5792 68.028 23.3492 68.6283 22.8896C69.2283 22.4171 69.6879 21.7212 70.0072 20.8018C70.3265 19.8697 70.4861 18.7204 70.4861 17.3541C70.4861 15.3238 70.135 13.7851 69.4325 12.738C68.7303 11.6782 67.7406 11.1483 66.4639 11.1483C65.6211 11.1483 64.8932 11.3845 64.2802 11.857C63.6801 12.3167 63.2204 13.0126 62.9013 13.9447C62.582 14.8641 62.4222 16.0006 62.4222 17.3541C62.4222 18.7077 62.582 19.8505 62.9013 20.7826C63.2204 21.7148 63.6801 22.4171 64.2802 22.8896C64.8932 23.3492 65.6211 23.5792 66.4639 23.5792Z" fill="black"/>
<path d="M39.4819 0.000488281H45.4963V23.1871L44.4235 21.942C44.4235 21.942 47.4023 21.942 52.5267 21.942C57.6509 21.942 56.9502 27.467 56.9502 27.467H39.4819V0.000488281Z" fill="black"/>
<mask id="mask0_171_5873" style="mask-type:alpha" maskUnits="userSpaceOnUse" x="0" y="0" width="28" height="28">
<path fill-rule="evenodd" clip-rule="evenodd" d="M8.10468 0C12.5808 0 16.2094 3.63816 16.2094 8.12605V11.2145H18.9066C23.3828 11.2145 27.0113 14.8526 27.0113 19.3404C27.0113 23.8284 23.3828 27.4665 18.9066 27.4665H0V8.12605C0 3.63816 3.6286 0 8.10468 0Z" fill="url(#paint0_linear_171_5873)"/>
</mask>
<g mask="url(#mask0_171_5873)">
<g filter="url(#filter0_f_171_5873)">
<path d="M11.8495 32.9451C21.9478 32.9451 30.1341 24.7588 30.1341 14.6605C30.1341 4.56225 21.9478 -3.62402 11.8495 -3.62402C1.75122 -3.62402 -6.43506 4.56225 -6.43506 14.6605C-6.43506 24.7588 1.75122 32.9451 11.8495 32.9451Z" fill="#4B73FF"/>
</g>
<g filter="url(#filter1_f_171_5873)">
<path d="M13.8584 22.9114C26.7916 22.9114 37.276 14.7251 37.276 4.62684C37.276 -5.47144 26.7916 -13.6577 13.8584 -13.6577C0.925221 -13.6577 -9.5592 -5.47144 -9.5592 4.62684C-9.5592 14.7251 0.925221 22.9114 13.8584 22.9114Z" fill="#FF66F4"/>
</g>
<g filter="url(#filter2_f_171_5873)">
<path d="M17.6782 17.245C27.7765 17.245 35.9628 10.0557 35.9628 1.1872C35.9628 -7.68128 27.7765 -14.8706 17.6782 -14.8706C7.57995 -14.8706 -0.606323 -7.68128 -0.606323 1.1872C-0.606323 10.0557 7.57995 17.245 17.6782 17.245Z" fill="#FF0105"/>
</g>
<g filter="url(#filter3_f_171_5873)">
<path d="M14.1842 15.6191C20.2573 15.6191 25.1805 10.6959 25.1805 4.62278C25.1805 -1.45032 20.2573 -6.37354 14.1842 -6.37354C8.11108 -6.37354 3.18787 -1.45032 3.18787 4.62278C3.18787 10.6959 8.11108 15.6191 14.1842 15.6191Z" fill="#FE7B02"/>
</g>
</g>
</g>
<defs>
<filter id="filter0_f_171_5873" x="-14.6295" y="-11.8184" width="52.9579" height="52.9582" filterUnits="userSpaceOnUse" color-interpolation-filters="sRGB">
<feFlood flood-opacity="0" result="BackgroundImageFix"/>
<feBlend mode="normal" in="SourceGraphic" in2="BackgroundImageFix" result="shape"/>
<feGaussianBlur stdDeviation="4.09721" result="effect1_foregroundBlur_171_5873"/>
</filter>
<filter id="filter1_f_171_5873" x="-17.7536" y="-21.8521" width="63.2241" height="52.9582" filterUnits="userSpaceOnUse" color-interpolation-filters="sRGB">
<feFlood flood-opacity="0" result="BackgroundImageFix"/>
<feBlend mode="normal" in="SourceGraphic" in2="BackgroundImageFix" result="shape"/>
<feGaussianBlur stdDeviation="4.09721" result="effect1_foregroundBlur_171_5873"/>
</filter>
<filter id="filter2_f_171_5873" x="-8.80075" y="-23.065" width="52.9579" height="48.5046" filterUnits="userSpaceOnUse" color-interpolation-filters="sRGB">
<feFlood flood-opacity="0" result="BackgroundImageFix"/>
<feBlend mode="normal" in="SourceGraphic" in2="BackgroundImageFix" result="shape"/>
<feGaussianBlur stdDeviation="4.09721" result="effect1_foregroundBlur_171_5873"/>
</filter>
<filter id="filter3_f_171_5873" x="-5.00656" y="-14.568" width="38.3815" height="38.3815" filterUnits="userSpaceOnUse" color-interpolation-filters="sRGB">
<feFlood flood-opacity="0" result="BackgroundImageFix"/>
<feBlend mode="normal" in="SourceGraphic" in2="BackgroundImageFix" result="shape"/>
<feGaussianBlur stdDeviation="4.09721" result="effect1_foregroundBlur_171_5873"/>
</filter>
<linearGradient id="paint0_linear_171_5873" x1="9.0898" y1="4.82676" x2="17.3191" y2="27.4561" gradientUnits="userSpaceOnUse">
<stop offset="0.025" stop-color="#FF8E63"/>
<stop offset="0.56" stop-color="#FF7EB0"/>
<stop offset="0.95" stop-color="#4B73FF"/>
</linearGradient>
<clipPath id="clip0_171_5873">
<rect width="165.36" height="28.1348" fill="white"/>
</clipPath>
</defs>
</svg>
