<svg xmlns="http://www.w3.org/2000/svg" width="254.367" height="38.318" fill="none" overflow="visible" style="display:block" viewBox="0 0 254.367 38.318"><g clip-path="url(#a)"><path fill="var(--fill-0, black)" d="M109.473 13.494c1.096 0 2.052.225 2.896.646s1.489.985 1.967 1.687v-2.08h3.74V28.59c0 1.349-.253 2.586-.815 3.655a6.2 6.2 0 0 1-2.474 2.558c-1.096.647-2.446.956-3.992.956-2.08 0-3.795-.478-5.145-1.462s-2.108-2.306-2.277-3.992h3.682q.296 1.013 1.266 1.603t2.361.59c1.097 0 1.968-.337 2.643-.985.675-.674 1.011-1.63 1.011-2.951v-2.277A5.6 5.6 0 0 1 112.369 28c-.844.477-1.828.702-2.896.702-1.237 0-2.362-.31-3.402-.956q-1.56-.97-2.446-2.699c-.59-1.152-.9-2.474-.9-3.991 0-1.49.309-2.811.9-3.964s1.406-2.053 2.418-2.67c1.04-.62 2.164-.93 3.43-.93m97.973-.027c1.406 0 2.671.309 3.768.9 1.096.618 1.968 1.461 2.586 2.585.618 1.125.927 2.39.927 3.824 0 .534-.028 1.012-.112 1.433h-10.768c.085 1.069.478 1.913 1.125 2.503s1.462.9 2.418.9q2.065-.001 2.952-1.772h4.02a6.63 6.63 0 0 1-2.446 3.486c-1.208.928-2.699 1.378-4.442 1.378-1.434 0-2.699-.338-3.823-.956a6.55 6.55 0 0 1-2.643-2.67c-.646-1.154-.956-2.475-.956-3.993s.309-2.867.928-4.02c.618-1.152 1.489-2.051 2.614-2.67s2.39-.928 3.851-.928zm-115.15 0c1.096 0 2.08.225 2.895.674a6.1 6.1 0 0 1 1.968 1.687V13.72h3.74v14.73h-3.74v-2.165c-.477.702-1.125 1.265-1.968 1.715s-1.827.674-2.924.674c-1.265 0-2.389-.309-3.401-.956s-1.828-1.547-2.418-2.699-.9-2.474-.9-3.992c0-1.49.309-2.811.9-3.964.59-1.153 1.405-2.052 2.418-2.67 1.04-.62 2.165-.927 3.43-.927m75.539 0c1.096 0 2.081.225 2.896.674a6.1 6.1 0 0 1 1.968 1.687V13.72h3.738v14.73h-3.738v-2.165c-.479.702-1.125 1.265-1.968 1.715s-1.828.674-2.924.674c-1.265 0-2.389-.309-3.402-.956-1.012-.647-1.827-1.547-2.417-2.699s-.9-2.474-.9-3.992c0-1.49.31-2.811.9-3.964s1.406-2.052 2.417-2.67c1.041-.62 2.165-.927 3.43-.927m-34.888-.03c1.827 0 3.317.48 4.526 1.379 1.208.928 1.996 2.193 2.417 3.851h-4.02a2.9 2.9 0 0 0-1.069-1.49c-.506-.366-1.152-.535-1.883-.535-1.04 0-1.883.394-2.53 1.153q-.928 1.18-.928 3.29c0 1.406.309 2.502.928 3.26.618.76 1.462 1.154 2.53 1.154q2.277 0 2.952-2.024h4.02c-.393 1.574-1.209 2.868-2.417 3.795-1.209.928-2.727 1.406-4.526 1.406-1.406 0-2.671-.338-3.768-.955-1.096-.647-1.967-1.519-2.585-2.67-.619-1.126-.928-2.475-.928-3.993s.309-2.84.928-3.992c.618-1.153 1.489-2.052 2.585-2.67 1.097-.648 2.362-.956 3.768-.956zm115.348.057c1.743 0 3.149.45 4.189 1.321 1.04.872 1.602 2.053 1.715 3.542h-3.57c-.056-.59-.309-1.068-.732-1.406-.449-.337-1.012-.506-1.743-.506-.674 0-1.18.113-1.546.366s-.534.59-.534 1.04c0 .478.225.872.73 1.124.479.253 1.266.534 2.306.787 1.068.253 1.939.535 2.643.816.702.28 1.293.73 1.799 1.32s.759 1.378.815 2.362c0 .843-.225 1.603-.702 2.277-.479.675-1.153 1.181-2.025 1.575-.871.365-1.883.562-3.064.562s-2.277-.226-3.233-.647c-.956-.45-1.714-1.012-2.276-1.772-.563-.759-.872-1.574-.928-2.474h3.739c.084.562.365 1.04.843 1.406.507.366 1.097.562 1.828.562.702 0 1.265-.14 1.658-.421q.591-.422.591-1.096c0-.479-.253-.816-.731-1.069-.507-.253-1.266-.506-2.333-.787-1.096-.253-1.996-.534-2.699-.815a4.54 4.54 0 0 1-1.799-1.293q-.759-.885-.759-2.362c0-.815.225-1.546.702-2.22q.717-1.013 2.024-1.603c.872-.394 1.912-.59 3.093-.59zM67.753 9.896l5.904 13.803 5.904-13.803h4.189V28.45h-3.71V16.362L75.063 28.45h-2.84l-4.976-12.088V28.45h-3.74V9.896zm86.42 0c3.261 0 5.932 2.642 5.904 5.903a5.903 5.903 0 0 1-5.904 5.904h-4.582v6.747h-3.711V9.896zM123.839 28.45h-3.711V13.72h3.711zm61.033-14.731h2.868v3.064h-2.868V28.45h-3.74V16.783h-2.867v-3.064h2.867v-3.655h3.74zm11.302 0h2.867v3.064h-2.867V28.45h-3.74V16.783h-2.868v-3.064h2.868v-3.655h3.74zm28.589 3.71h-.984c-1.181 0-2.052.254-2.643.816-.59.534-.899 1.49-.899 2.867v7.338h-3.711V13.72h3.711v2.278a5 5 0 0 1 1.883-1.8c.759-.45 1.659-.674 2.642-.674v3.907zm9.981-3.935c1.77 0 3.176.562 4.244 1.659 1.097 1.096 1.631 2.642 1.631 4.638v8.631h-3.711v-8.125c0-1.18-.281-2.08-.872-2.699-.59-.647-1.377-.956-2.389-.956-1.041 0-1.856.337-2.447.956-.59.619-.899 1.519-.899 2.7v8.124h-3.711V13.691h3.711v1.827a5.6 5.6 0 0 1 1.911-1.49c.759-.365 1.602-.533 2.53-.533zM93.251 16.756c-.675 0-1.321.168-1.911.506-.59.309-1.068.815-1.434 1.462-.366.646-.534 1.406-.534 2.305s.168 1.659.534 2.333a4.13 4.13 0 0 0 1.434 1.518 3.57 3.57 0 0 0 1.911.534q1.055 0 1.94-.506c.59-.338 1.068-.843 1.434-1.49.366-.646.534-1.434.534-2.334s-.168-1.686-.534-2.333-.843-1.153-1.434-1.49a3.84 3.84 0 0 0-1.94-.505m75.54 0a3.8 3.8 0 0 0-1.912.506c-.59.309-1.068.815-1.433 1.462-.366.646-.535 1.406-.535 2.305s.169 1.659.535 2.333a4.13 4.13 0 0 0 1.433 1.518 3.57 3.57 0 0 0 1.912.534q1.053 0 1.94-.506c.59-.338 1.068-.843 1.434-1.49.365-.646.534-1.434.534-2.334s-.169-1.686-.534-2.333c-.366-.647-.844-1.153-1.434-1.49a3.84 3.84 0 0 0-1.94-.505m-58.362 0a3.8 3.8 0 0 0-1.912.505c-.59.31-1.068.815-1.434 1.462s-.534 1.406-.534 2.305.169 1.659.534 2.333a4.14 4.14 0 0 0 1.434 1.518 3.57 3.57 0 0 0 1.912.534q1.053 0 1.94-.506c.589-.338 1.068-.843 1.433-1.49.338-.646.534-1.434.534-2.333s-.168-1.687-.534-2.334c-.365-.647-.844-1.153-1.433-1.49a3.84 3.84 0 0 0-1.94-.507zm96.905-.225c-.928 0-1.715.28-2.334.843s-1.012 1.349-1.153 2.333h7c-.028-.955-.365-1.715-1.04-2.305s-1.49-.872-2.474-.872zm-57.716 2.136h3.796c1.574 0 2.867-1.321 2.867-2.896a2.86 2.86 0 0 0-2.867-2.867h-3.796zm-27.636-10.12c.619 0 1.125.197 1.547.59.421.394.618.871.618 1.462 0 .59-.197 1.068-.618 1.462-.422.393-.928.59-1.547.59s-1.125-.197-1.546-.59c-.422-.394-.619-.872-.619-1.462s.197-1.068.619-1.462c.421-.393.928-.59 1.546-.59"/><path fill="var(--fill-0, white)" d="M51.672 18.583h-.113l-3.57.562h-.084a.695.695 0 0 1-.703-.703v-.113l2.67-12.875c.028-.085.028-.198.028-.281 0-.76-.618-1.35-1.349-1.35-.084 0-.168 0-.225.028l-12.032 1.94c-.085 0-.14.028-.225.028a1.35 1.35 0 0 1-1.35-1.349c0-.085 0-.168.029-.253l.534-2.587s.028-.196.028-.28c0-.76-.62-1.35-1.35-1.35-.084 0-.168 0-.225.028L8.743 4.02a2.945 2.945 0 0 0-2.39 2.249L.028 36.688s-.028.196-.028.28c0 .76.619 1.35 1.35 1.35.224 0 .42-.056.618-.14l15.265-7.788c.169-.084.366-.14.59-.14.76 0 1.35.618 1.35 1.349 0 .084 0 .168-.028.253l-.984 4.779c-.028.112-.028.225-.028.337a1.35 1.35 0 0 0 1.35 1.349c.224 0 .42-.056.618-.14l17.318-8.856a.57.57 0 0 1 .309-.085c.393 0 .702.31.702.703v.14l-.73 3.57c0 .057-.029.113-.029.141 0 .394.31.703.703.703a.74.74 0 0 0 .337-.085l10.88-5.538c.59-.309 1.04-.872 1.152-1.518l1.63-7.927c0-.056.029-.113.029-.169a.735.735 0 0 0-.73-.674"/><path fill="url(#b)" d="M51.672 18.583h-.113l-3.57.562h-.084a.695.695 0 0 1-.703-.703v-.113l2.67-12.875c.028-.085.028-.198.028-.281 0-.76-.618-1.35-1.349-1.35-.084 0-.168 0-.225.028l-12.032 1.94c-.085 0-.14.028-.225.028a1.35 1.35 0 0 1-1.35-1.349c0-.085 0-.168.029-.253l.534-2.587s.028-.196.028-.28c0-.76-.62-1.35-1.35-1.35-.084 0-.168 0-.225.028L8.743 4.02a2.945 2.945 0 0 0-2.39 2.249L.028 36.688s-.028.196-.028.28c0 .76.619 1.35 1.35 1.35.224 0 .42-.056.618-.14l15.265-7.788c.169-.084.366-.14.59-.14.76 0 1.35.618 1.35 1.349 0 .084 0 .168-.028.253l-.984 4.779c-.028.112-.028.225-.028.337a1.35 1.35 0 0 0 1.35 1.349c.224 0 .42-.056.618-.14l17.318-8.856a.57.57 0 0 1 .309-.085c.393 0 .702.31.702.703v.14l-.73 3.57c0 .057-.029.113-.029.141 0 .394.31.703.703.703a.74.74 0 0 0 .337-.085l10.88-5.538c.59-.309 1.04-.872 1.152-1.518l1.63-7.927c0-.056.029-.113.029-.169a.735.735 0 0 0-.73-.674"/></g><defs><linearGradient id="b" x1="50.23" x2="-2.695" y1="6.753" y2="31.521" gradientUnits="userSpaceOnUse"><stop stop-color="#c2fba7"/><stop offset=".274" stop-color="#82ce84"/><stop offset=".788" stop-color="#abcade"/><stop offset=".894" stop-color="#c8accb"/><stop offset=".971" stop-color="#a192c7"/></linearGradient><clipPath id="a"><path fill="#fff" d="M0 0h254.367v38.318H0z"/></clipPath></defs></svg>