<svg width="176" height="49" viewBox="0 0 176 49" fill="none" xmlns="http://www.w3.org/2000/svg">
<g clip-path="url(#clip0_271_2492)">
<mask id="mask0_271_2492" style="mask-type:luminance" maskUnits="userSpaceOnUse" x="-2" y="-2" width="179" height="53">
<path d="M176.489 -1.96497H-1.94812V50.4344H176.489V-1.96497Z" fill="white"/>
</mask>
<g mask="url(#mask0_271_2492)">
<path fill-rule="evenodd" clip-rule="evenodd" d="M1.32198 5.50925C0.871081 6.4377 1.24922 7.56034 2.16435 8.01586C3.4776 8.66966 4.61203 9.31527 5.73928 10.6075C6.41563 11.3817 7.58336 11.4524 8.33914 10.7658C9.10208 10.0792 9.17484 8.89563 8.49849 8.12192C6.89318 6.2804 5.23509 5.37655 3.78913 4.65305C2.87401 4.19754 1.76674 4.58081 1.32198 5.50925Z" fill="black"/>
<path fill-rule="evenodd" clip-rule="evenodd" d="M11.2711 0.0563647C10.2827 0.306922 9.68578 1.32401 9.93121 2.32727C10.1039 3.02822 10.2627 3.62822 10.4154 4.17648C10.6942 5.22636 10.9263 6.09127 11.0918 7.12732C11.2578 8.14748 12.2062 8.8387 13.2141 8.67012C14.2158 8.50155 14.8922 7.53723 14.7261 6.51707C14.5273 5.29246 14.222 4.13446 13.9104 2.97185C13.7711 2.45639 13.6317 1.94093 13.5056 1.41829C13.2602 0.414524 12.2585 -0.195218 11.2706 0.0558523L11.2711 0.0563647Z" fill="black"/>
<path fill-rule="evenodd" clip-rule="evenodd" d="M21.8042 1.20869C20.9352 0.67222 19.8013 0.954033 19.2771 1.83841C18.2954 3.47857 17.7845 5.09464 17.3003 7.03813C17.0549 8.0419 17.6585 9.05848 18.6469 9.31006C19.6286 9.56062 20.6303 8.95036 20.8752 7.94711C21.3195 6.14504 21.7243 4.95117 22.4273 3.78242C22.9514 2.89803 22.6727 1.74619 21.8037 1.20971L21.8042 1.20869Z" fill="black"/>
<path fill-rule="evenodd" clip-rule="evenodd" d="M31.1963 47.4748C34.7646 45.1705 37.2389 32.8128 36.6948 29.1328C36.6948 29.1328 36.1311 27.157 34.7446 27.157C33.6901 27.157 33.1065 28.026 32.8872 28.4318C32.7017 28.3622 32.5091 28.2991 32.363 28.25C32.277 28.2233 32.1642 28.1869 32.0582 28.1531L31.8594 28.0875C31.6933 28.0342 31.5345 27.9825 31.3885 27.9318V27.8795C31.3951 26.6851 31.2757 24.821 30.0486 22.8791C29.8564 22.5686 29.6704 22.2909 29.5116 22.0547L29.4122 21.9076C29.2928 21.7324 29.2001 21.5951 29.1135 21.4577C28.8947 21.1216 28.8347 20.992 28.8086 20.9325V20.93C28.8019 20.9069 28.782 20.8598 28.7753 20.7158C28.7686 20.5395 28.7886 20.2044 28.9013 19.6198L29.4916 17.2398V17.2269C29.5316 17.0087 29.5644 16.8124 29.5844 16.4927C29.6043 16.1981 29.6043 15.7713 29.5311 15.2747C29.3917 14.335 28.8547 12.554 26.9573 11.521C26.4931 11.2684 25.9361 11.1177 25.392 11.0455C25.0205 10.9963 24.5296 10.963 23.9594 11.0081C22.7921 11.0988 21.2662 11.522 19.9002 12.7825L19.562 13.1427C18.7725 14.107 17.9367 15.3019 17.3004 16.359C15.3769 15.4443 13.1152 14.3945 11.5298 13.8293C9.79183 13.2098 7.84885 12.6913 6.03141 12.7579C4.0085 12.8317 1.74016 13.6858 0.552444 16.1033C0.0615758 17.0968 -0.143892 18.2563 0.108203 19.4656C0.346976 20.621 0.937247 21.5044 1.50753 22.1208C2.55537 23.2654 3.96187 23.9746 4.95642 24.4045C5.7127 24.7334 6.49512 25.0076 7.1848 25.2289C7.11204 25.3621 7.03876 25.5 6.96601 25.6404C6.76054 26.0549 6.50844 26.6093 6.34243 27.2441C6.17642 27.8769 6.05037 28.7782 6.28299 29.7953C6.52177 30.8396 6.99931 31.6543 7.56294 32.2778C7.54295 32.6022 7.53629 32.9439 7.54962 33.2975C7.62904 35.6586 9.05552 37.2337 10.3088 38.1257C11.5093 38.9768 12.9153 39.4989 14.0564 39.8494C15.1576 40.1881 16.3181 40.4571 17.2665 40.6759L17.4653 40.7225C18.4737 40.9562 19.4683 41.2257 20.4633 41.4957C21.5911 41.8021 22.7184 42.1085 23.8661 42.3621C24.2442 42.4452 24.6091 42.5246 24.9406 42.5968L25.0666 42.9181C26.5526 46.7574 28.5422 49.1877 31.1953 47.4748H31.1963ZM17.5991 31.7629C17.3936 31.6794 17.2809 31.6235 17.1748 31.5713C16.2725 31.0978 15.1652 31.4544 14.6944 32.3701C14.2235 33.2872 14.575 34.4191 15.4773 34.8972C15.55 34.9356 15.63 34.973 15.7027 35.0084C15.8288 35.0683 16.0076 35.1482 16.2202 35.2364C16.6445 35.4095 17.2419 35.6258 17.925 35.7723C19.1388 36.0336 21.3738 36.2319 22.8864 34.4662C23.6161 33.6177 23.9609 32.5043 24.1003 31.4621C24.233 30.3887 24.1664 29.2117 23.9015 28.0655C23.3706 25.8084 21.978 23.3382 19.3781 22.1669C17.1497 21.1631 14.9475 20.9274 13.0901 21.139C11.8496 21.2804 10.6624 21.635 9.71394 22.1756V22.1346C7.38565 21.4588 2.75622 20.1137 3.8968 17.7926C4.75915 16.0336 7.1269 16.1786 10.3437 17.3243C11.6436 17.7901 13.461 18.6191 15.1724 19.4277C15.7032 19.6782 16.2202 19.9272 16.7111 20.1624C17.4341 20.5052 18.628 21.0704 18.628 21.0704C19.9945 19.4056 20.5248 18.4884 20.989 17.6789C21.3139 17.1219 21.606 16.6162 22.1168 15.9531C22.8465 15.0145 24.0203 14.4349 25.2275 14.7747C26.0699 15.2322 25.8578 16.3887 25.8578 16.3887L25.2741 18.7452C24.7172 21.5197 25.3336 22.4374 26.3486 23.9505C26.528 24.2159 26.7201 24.5003 26.9189 24.8159C27.728 26.102 27.6947 27.3389 27.6619 28.3478C27.6419 28.997 27.6286 29.5524 27.8412 29.9665C28.2788 30.8186 29.9307 31.3473 31.0119 31.6937C31.2706 31.7767 31.4961 31.8495 31.6621 31.914L31.7815 31.9607C31.6288 32.4408 31.4894 32.9378 31.3506 33.4343C30.7403 35.6422 30.1234 37.8403 28.2993 38.4998C25.9976 39.3309 23.696 38.5443 23.696 38.5443C23.2779 38.4209 22.8603 38.3256 22.4355 38.2297C21.9113 38.1109 21.381 37.9915 20.8702 37.8183C20.1539 37.5483 19.1521 37.3167 18.0643 37.0646C15.4773 36.4646 12.3932 35.7508 11.5109 34.1388C11.3582 33.8667 11.2721 33.5706 11.2588 33.2442C11.2122 31.7619 11.723 30.4348 11.723 30.4348C11.723 30.4348 10.9339 30.4378 10.3765 29.8947C10.171 29.6918 9.99166 29.4131 9.90558 29.0303C9.72624 28.2653 9.87893 27.1565 10.8012 26.2199L11.2655 25.7515C11.4976 25.5148 12.1872 25.0106 13.5005 24.8605C14.7476 24.7186 16.2863 24.8713 17.885 25.5907C19.1122 26.143 19.9612 27.4101 20.3127 28.9289C20.4849 29.6713 20.5182 30.3912 20.4454 30.98C20.366 31.5994 20.1933 31.9099 20.1139 32.0027C20.0145 32.118 19.663 32.3173 18.6879 32.1077C18.2831 32.0196 17.8922 31.8823 17.6001 31.7619L17.5991 31.7629Z" fill="black"/>
<path d="M163.475 33.7807H162.368V27.2242H163.867C164.272 28.9535 164.855 30.2145 165.618 31.0072C166.374 31.7998 167.362 32.1959 168.576 32.1959C169.458 32.1959 170.134 32.0161 170.612 31.6558C171.11 31.271 171.362 30.7551 171.362 30.1064C171.362 29.4336 171.063 28.786 170.466 28.1608C169.876 27.5127 168.907 26.8281 167.581 26.1072C165.77 25.1229 164.47 24.1504 163.687 23.1897C162.905 22.2054 162.513 21.1001 162.513 19.875C162.513 19.0829 162.653 18.3502 162.937 17.6774C163.249 16.9811 163.654 16.3805 164.151 15.8763C164.675 15.3716 165.292 14.9874 166.009 14.7235C166.718 14.435 167.495 14.291 168.324 14.291C169.067 14.291 169.79 14.3991 170.506 14.6154C171.242 14.8316 171.886 15.1313 172.429 15.5161L173.073 14.6512H174.001V20.0907H172.609C172.065 18.7216 171.494 17.7373 170.897 17.1373C170.327 16.5373 169.624 16.2366 168.795 16.2366C168.125 16.2366 167.588 16.4164 167.183 16.7771C166.805 17.1373 166.613 17.6174 166.613 18.218C166.613 18.8907 166.898 19.5266 167.468 20.1276C168.065 20.7281 169.041 21.3886 170.4 22.109C171.349 22.6368 172.171 23.1538 172.861 23.658C173.551 24.1627 174.109 24.6787 174.539 25.2074C174.964 25.7116 175.276 26.2522 175.468 26.8286C175.68 27.381 175.786 27.9815 175.786 28.6297C175.786 29.4705 175.633 30.2268 175.322 30.8996C175.01 31.5723 174.572 32.1488 174.002 32.6289C173.432 33.109 172.741 33.481 171.932 33.7459C171.149 34.0098 170.268 34.142 169.293 34.142C168.271 34.142 167.316 34.0098 166.434 33.7459C165.558 33.4574 164.829 33.0495 164.258 32.5208L163.476 33.7817L163.475 33.7807Z" fill="black"/>
<path d="M152.087 20.5955C152.087 19.6353 152.06 18.8785 152.014 18.3261C151.968 17.7497 151.835 17.3172 151.623 17.0287C151.411 16.7172 151.085 16.5128 150.661 16.4164C150.256 16.2965 149.699 16.2002 148.983 16.1285V14.6871H157.049V25.603C157.049 27.0675 157.062 28.2203 157.082 29.0617C157.128 29.8784 157.201 30.4902 157.301 30.8991C157.367 31.2106 157.453 31.4637 157.546 31.6554C157.645 31.824 157.798 31.9679 158.01 32.0878C158.222 32.1842 158.508 32.2554 158.866 32.3041C159.251 32.3281 159.735 32.3399 160.332 32.3399V33.7449L153.228 34.1774L152.837 30.9708H152.697C152.074 31.9797 151.205 32.7606 150.091 33.313C148.97 33.8648 147.723 34.1415 146.343 34.1415C143.796 34.1415 141.859 33.2289 140.526 31.4033C139.504 30.0106 138.987 28.0292 138.987 25.4596V20.5955C138.987 19.6112 138.967 18.8426 138.921 18.2897C138.868 17.7133 138.742 17.2814 138.523 16.9929C138.338 16.7049 138.039 16.5128 137.634 16.4164C137.229 16.2965 136.672 16.2002 135.956 16.1285V14.6871H143.949V24.8826C143.949 27.3083 144.248 29.0735 144.844 30.1782C145.435 31.2588 146.39 31.7994 147.696 31.7994C149.102 31.7994 150.184 31.1507 150.946 29.8538C151.709 28.6046 152.088 26.7677 152.088 24.3421V20.595L152.087 20.5955Z" fill="black"/>
<path d="M119.095 27.9088C119.095 28.8931 119.122 29.674 119.168 30.2504C119.24 30.8027 119.367 31.2352 119.559 31.5478C119.771 31.8357 120.083 32.0279 120.488 32.1242C120.912 32.2195 121.489 32.2923 122.199 32.3399V33.7813H110.956V32.3399C111.646 32.2923 112.197 32.22 112.601 32.1242C113.025 32.0279 113.351 31.8357 113.563 31.5478C113.801 31.2593 113.954 30.8514 114.027 30.3226C114.1 29.7939 114.133 29.0734 114.133 28.1609V23.658C114.133 22.2413 114.113 21.1002 114.06 20.2353C114.014 19.3473 113.954 18.7468 113.888 18.4342C113.815 18.1217 113.715 17.8696 113.602 17.6774C113.483 17.4612 113.304 17.3054 113.065 17.2091C112.826 17.0892 112.528 17.0175 112.169 16.9929C111.811 16.9452 111.36 16.9211 110.816 16.9211V15.696L117.701 14.3269L118.165 17.4976H118.311C119.094 16.4887 120.023 15.7078 121.091 15.1554C122.165 14.6031 123.339 14.3269 124.626 14.3269C126.152 14.3269 127.372 14.5431 128.301 14.9756C129.256 15.3834 130.098 16.0798 130.835 17.0651C131.24 17.6175 131.598 18.3379 131.909 19.2269C132.214 20.0913 132.373 21.2923 132.373 22.829V27.9083C132.373 28.8926 132.393 29.6734 132.44 30.2499C132.512 30.8022 132.645 31.2347 132.831 31.5472C133.05 31.8352 133.355 32.0274 133.759 32.1237C134.164 32.219 134.715 32.2917 135.404 32.3394V33.7807H124.235V32.3394C124.944 32.3153 125.508 32.2559 125.913 32.1595C126.337 32.0396 126.662 31.8352 126.875 31.5472C127.087 31.2588 127.233 30.8509 127.305 30.3221C127.372 29.7698 127.412 29.0494 127.412 28.1604V23.2614C127.412 22.0363 127.339 21.0038 127.193 20.163C127.053 19.3227 126.815 18.6499 126.483 18.1452C126.172 17.6175 125.753 17.2444 125.229 17.0287C124.712 16.7879 124.055 16.668 123.272 16.668C122.509 16.668 121.853 16.8842 121.309 17.3167C120.759 17.7491 120.281 18.3497 119.876 19.1182C119.664 19.5502 119.472 20.1143 119.306 20.8112C119.167 21.4839 119.094 22.1921 119.094 22.9371V27.9083L119.095 27.9088Z" fill="black"/>
<path d="M102.062 23.5135C100.065 24.4261 98.5528 25.2787 97.5311 26.0714C96.5294 26.8399 96.0318 27.6449 96.0318 28.4852C96.0318 29.1815 96.224 29.7344 96.6021 30.1423C96.9803 30.5506 97.4578 30.7551 98.0281 30.7551C98.5984 30.7551 99.1359 30.6588 99.6334 30.4666C100.138 30.2504 100.562 29.9742 100.92 29.6381C101.278 29.302 101.55 28.9059 101.742 28.4493C101.955 27.9692 102.061 27.4645 102.061 26.9363V23.5135H102.062ZM102.062 21.6044V20.0913C102.062 18.6986 101.816 17.6897 101.312 17.0651C100.841 16.4164 100.085 16.0921 99.0636 16.0921C98.374 16.0921 97.8498 16.2842 97.4983 16.6685C97.1401 17.0292 96.802 17.6415 96.4966 18.5059C96.2845 19.107 95.9724 19.5753 95.5681 19.9114C95.19 20.247 94.653 20.4156 93.9628 20.4156C93.2931 20.4156 92.7823 20.2112 92.4241 19.8033C92.0726 19.3949 91.8933 18.8185 91.8933 18.074C91.8933 16.9211 92.5102 16.0086 93.7507 15.3358C95.0112 14.663 96.9014 14.3269 99.4218 14.3269C102.088 14.3269 103.992 14.8193 105.133 15.8041C106.274 16.7643 106.844 18.3855 106.844 20.6672V28.5569C106.844 30.5978 107.249 31.6185 108.058 31.6185C108.509 31.6185 108.927 31.4627 109.312 31.1501L109.843 32.1949C109.511 32.7949 108.987 33.276 108.271 33.6363C107.581 33.9724 106.798 34.1404 105.916 34.1404C104.821 34.1404 103.992 33.8043 103.422 33.1315C102.852 32.4588 102.566 31.5104 102.566 30.2863H102.388C101.698 31.5344 100.802 32.4839 99.7077 33.1315C98.6133 33.7802 97.3661 34.1046 95.9601 34.1046C94.4609 34.1046 93.2603 33.6839 92.3585 32.8436C91.4501 31.9787 90.9987 30.8622 90.9987 29.4936C90.9987 28.4365 91.4629 27.4522 92.3913 26.5392C93.3198 25.6025 94.8651 24.69 97.0341 23.801L102.062 21.6033V21.6044Z" fill="black"/>
<path d="M59.8633 27.8365C59.8633 28.8454 59.89 29.6381 59.9366 30.2145C59.9832 30.791 60.1154 31.2352 60.3281 31.5478C60.5402 31.8357 60.8523 32.0279 61.2565 32.1242C61.6613 32.2195 62.2183 32.2923 62.9346 32.3399V33.7813H51.6523V32.3399C52.3686 32.2923 52.9389 32.22 53.3704 32.1242C53.7946 32.0279 54.12 31.8357 54.3321 31.5478C54.5442 31.2593 54.6903 30.8514 54.763 30.3226C54.8291 29.7703 54.8691 29.0381 54.8691 28.125V23.658C54.8691 22.2889 54.8425 21.1483 54.7963 20.2353C54.7697 19.3232 54.7103 18.6986 54.617 18.362C54.5442 18.0494 54.451 17.8096 54.3316 17.6415C54.2389 17.4494 54.0728 17.3054 53.8341 17.2091C53.6153 17.0892 53.3299 17.0175 52.9784 16.9929C52.6202 16.9452 52.156 16.9211 51.5852 16.9211V15.696L58.4702 14.3269L58.9011 17.4612H59.1132C60.1149 16.3324 61.1095 15.5285 62.1112 15.0473C63.1329 14.5672 64.3134 14.3269 65.6467 14.3269C67.212 14.3269 68.5119 14.6031 69.5336 15.1554C70.5553 15.7078 71.3311 16.5005 71.8553 17.5334H71.9946C72.8503 16.5245 73.8782 15.7437 75.0659 15.1918C76.2531 14.6154 77.5269 14.3269 78.8863 14.3269C80.3122 14.3269 81.5461 14.5073 82.5939 14.8675C83.6684 15.2277 84.4974 15.7437 85.0944 16.4164C85.5719 16.9688 85.9167 17.6892 86.1289 18.5782C86.3676 19.4672 86.487 20.7036 86.487 22.2884V27.836C86.487 28.8208 86.507 29.6017 86.5598 30.1781C86.6264 30.7546 86.7719 31.1983 86.984 31.5109C87.1962 31.8234 87.5082 32.0274 87.9125 32.1237C88.3173 32.219 88.8742 32.2917 89.5906 32.3394V33.7807H78.315V32.3394C79.0246 32.3153 79.5882 32.2559 79.993 32.1595C80.4173 32.0396 80.7426 31.8352 80.9548 31.5472C81.1935 31.2347 81.3329 30.8145 81.379 30.2863C81.4518 29.7575 81.4918 29.0371 81.4918 28.1245V23.4054C81.4918 22.1562 81.4185 21.0997 81.273 20.2347C81.1336 19.3703 80.9082 18.674 80.5966 18.1452C80.2851 17.6175 79.8736 17.2444 79.3495 17.0287C78.8453 16.7879 78.2284 16.668 77.4921 16.668C76.6564 16.668 75.9667 16.8724 75.4225 17.2808C74.8983 17.6887 74.4608 18.2175 74.1026 18.8662C73.479 19.9944 73.1742 21.3994 73.1742 23.0805V27.8355C73.1742 28.8203 73.1941 29.6012 73.2469 30.1776C73.2935 30.7541 73.4263 31.1978 73.6384 31.5104C73.8505 31.8229 74.1626 32.0268 74.5668 32.1232C74.9911 32.2185 75.5752 32.2912 76.3115 32.3389V33.7802H65.0026V32.3389C65.7123 32.2912 66.2759 32.219 66.6807 32.1232C67.1049 32.0268 67.4303 31.8347 67.6424 31.5467C67.8812 31.2583 68.0206 30.8504 68.0667 30.3216C68.1394 29.7693 68.1794 29.0371 68.1794 28.124V23.4049C68.1794 22.1557 68.1066 21.0991 67.9606 20.2342C67.8212 19.3698 67.5825 18.6735 67.251 18.1447C66.9394 17.6169 66.5213 17.2439 65.9971 17.0282C65.473 16.7874 64.8233 16.6675 64.0337 16.6675C63.2513 16.6675 62.5944 16.8596 62.0769 17.2439C61.5727 17.6287 61.1551 18.1447 60.823 18.7934C60.5182 19.3698 60.2789 20.0303 60.1134 20.7748C59.9474 21.5188 59.8613 22.2879 59.8613 23.0805V27.8355L59.8633 27.8365Z" fill="black"/>
</g>
</g>
<defs>
<clipPath id="clip0_271_2492">
<rect width="175.786" height="48.0328" fill="white"/>
</clipPath>
</defs>
</svg>
