<svg width="190.954" height="27.2184" overflow="visible" style="display: block;" viewBox="0 0 190.954 27.2184" fill="none" xmlns="http://www.w3.org/2000/svg">
<g id="Mobbin Logo" clip-path="url(#clip0_0_51)">
<path id="Vector" d="M154.248 27.1956C159.955 27.1956 163.037 22.3997 163.037 17.0327C163.037 11.6657 160.069 6.93814 154.203 6.93814C151.534 6.93814 149.165 8.06635 148.154 9.72803V0.315088H143.018V26.7844H148.154V23.9664C149.188 25.8413 151.369 27.1956 154.248 27.1956ZM152.947 22.4223C149.797 22.4223 147.925 19.9101 147.925 16.8269C147.925 13.7437 149.957 11.2544 152.993 11.2544C156.349 11.2544 158.015 13.9721 158.015 16.8269C158.015 19.6817 156.074 22.4223 152.947 22.4223ZM173.104 26.7844H178.308V16.987C178.308 14.0637 179.335 11.7343 182.234 11.7343C185.134 11.7343 185.75 14.0865 185.75 16.8271V26.7844H190.954V15.2284C190.954 10.2726 188.466 6.93814 184.038 6.93814C181.48 6.93814 178.995 8.02365 178.171 10.9451V8.05717H173.104V26.7844H173.104ZM164.779 5.72325H170.791V0H164.779V5.72325ZM165.171 26.7844H170.399V8.05738H165.171V26.7844ZM132.175 27.1956C137.881 27.1956 140.963 22.3997 140.963 17.0327C140.963 11.6657 137.995 6.93814 132.129 6.93814C129.46 6.93814 127.092 8.06635 126.08 9.72803V0.315088H120.944V26.7844H126.08V23.9664C127.114 25.8413 129.296 27.1956 132.175 27.1956ZM130.874 22.4223C127.724 22.4223 125.852 19.9101 125.852 16.8269C125.852 13.7437 127.884 11.2544 130.919 11.2544C134.275 11.2544 135.941 13.9721 135.941 16.8269C135.941 19.6817 134.001 22.4223 130.874 22.4223ZM108.662 22.3388C105.388 22.3388 103.59 19.9165 103.59 16.9413C103.59 13.7582 105.596 11.5438 108.662 11.5438C112.028 11.5438 113.873 14.1043 113.873 16.9413C113.873 19.7784 111.959 22.3388 108.662 22.3388ZM108.663 27.2184C114.849 27.2184 118.798 22.9477 118.798 17.0784C118.798 11.2091 114.712 6.84698 108.663 6.84698C102.614 6.84698 98.6649 11.1863 98.6649 17.0784C98.6649 22.9705 102.751 27.2184 108.663 27.2184ZM68.4194 26.9672H73.5326V8.76099L80.0382 25.9167H84.9232L91.4292 8.76099V26.9672H96.5426V0.315088H89.8999L82.4812 20.4583L75.085 0.315088H68.4194V26.9672ZM20.0888 26.9672H35.1778L41.3357 20.3924V26.9672H57.969V11.2243H48.6242V0.321279H34.4845L28.127 6.95009V0.321279H11.8064L0 12.7914V26.9606L13.5827 26.9667L20.0888 20.0205V26.9672Z" fill="var(--fill-0, #141414)"/>
</g>
<defs>
<clipPath id="clip0_0_51">
<rect width="190.954" height="27.2184" fill="white"/>
</clipPath>
</defs>
</svg>
