<svg width="155.43" height="42.008" overflow="visible" style="display: block;" viewBox="0 0 155.43 42.008" fill="none" xmlns="http://www.w3.org/2000/svg">
<g id="N8N Logo" clip-path="url(#clip0_0_60)">
<path id="Vector" fill-rule="evenodd" clip-rule="evenodd" d="M71.4136 16.8032C67.499 16.8032 64.2092 14.1257 63.2766 10.502H53.6474C51.5936 10.502 49.8411 11.9866 49.5035 14.0122L49.1582 16.084C48.8303 18.0511 47.8352 19.7631 46.428 21.004C47.8352 22.2449 48.8303 23.9569 49.1582 25.924L49.5035 27.9958C49.8411 30.0214 51.5936 31.506 53.6474 31.506H54.875C55.8076 27.8823 59.0974 25.2048 63.012 25.2048C67.6523 25.2048 71.4136 28.9663 71.4136 33.6064C71.4136 38.2465 67.6523 42.008 63.012 42.008C59.0974 42.008 55.8076 39.3305 54.875 35.7068H53.6474C49.5401 35.7068 46.035 32.7376 45.3598 28.6864L45.0145 26.6146C44.6769 24.589 42.9244 23.1044 40.8709 23.1044H37.5425C36.6099 26.7281 33.3204 29.4056 29.4056 29.4056C25.4908 29.4056 22.2013 26.7281 21.2687 23.1044H16.5385C15.6059 26.7281 12.3164 29.4056 8.4016 29.4056C3.76152 29.4056 0 25.6441 0 21.004C0 16.3639 3.76152 12.6024 8.4016 12.6024C12.3164 12.6024 15.6059 15.2799 16.5385 18.9036H21.2687C22.2013 15.2799 25.4908 12.6024 29.4056 12.6024C33.3204 12.6024 36.6099 15.2799 37.5425 18.9036H40.8709C42.9244 18.9036 44.6769 17.419 45.0145 15.3934L45.3598 13.3216C46.035 9.27043 49.5401 6.3012 53.6474 6.3012H63.2766C64.2092 2.67753 67.499 0 71.4136 0C76.0539 0 79.8152 3.76152 79.8152 8.4016C79.8152 13.0417 76.0539 16.8032 71.4136 16.8032ZM71.4136 12.6024C73.7335 12.6024 75.6144 10.7216 75.6144 8.4016C75.6144 6.08155 73.7335 4.2008 71.4136 4.2008C69.0937 4.2008 67.2128 6.08155 67.2128 8.4016C67.2128 10.7216 69.0937 12.6024 71.4136 12.6024ZM8.4016 25.2048C10.7216 25.2048 12.6024 23.324 12.6024 21.004C12.6024 18.6839 10.7216 16.8032 8.4016 16.8032C6.08155 16.8032 4.2008 18.6839 4.2008 21.004C4.2008 23.324 6.08155 25.2048 8.4016 25.2048ZM33.6064 21.004C33.6064 23.324 31.7256 25.2048 29.4056 25.2048C27.0855 25.2048 25.2048 23.324 25.2048 21.004C25.2048 18.6839 27.0855 16.8032 29.4056 16.8032C31.7256 16.8032 33.6064 18.6839 33.6064 21.004ZM67.2128 33.6064C67.2128 35.9264 65.3319 37.8072 63.012 37.8072C60.6921 37.8072 58.8112 35.9264 58.8112 33.6064C58.8112 31.2863 60.6921 29.4056 63.012 29.4056C65.3319 29.4056 67.2128 31.2863 67.2128 33.6064Z" fill="var(--fill-0, #EA4B71)"/>
<path id="Vector_2" fill-rule="evenodd" clip-rule="evenodd" d="M130.231 18.1641V17.9639C131.697 17.2298 133.162 15.962 133.162 13.4596C133.162 9.85618 130.197 7.68747 126.1 7.68747C121.903 7.68747 118.905 9.98966 118.905 13.5263C118.905 15.9286 120.304 17.2298 121.836 17.9639V18.1641C120.138 18.7646 118.105 20.5663 118.105 23.5692C118.105 27.206 121.103 29.7417 126.067 29.7417C131.03 29.7417 133.928 27.206 133.928 23.5692C133.928 20.5663 131.93 18.798 130.231 18.1641ZM126.067 10.757C127.733 10.757 128.965 11.8247 128.965 13.6265C128.965 15.4281 127.699 16.4958 126.067 16.4958C124.435 16.4958 123.069 15.4281 123.069 13.6265C123.069 11.7913 124.368 10.757 126.067 10.757ZM126.067 26.5387C124.135 26.5387 122.569 25.3042 122.569 23.2022C122.569 21.3004 123.868 19.8656 126.033 19.8656C128.165 19.8656 129.464 21.267 129.464 23.2689C129.464 25.3042 127.966 26.5387 126.067 26.5387Z" fill="var(--fill-0, #040506)"/>
<path id="Vector_3" d="M139.067 29.408H143.331V20.3661C143.331 17.3967 145.13 16.0954 147.162 16.0954C149.161 16.0954 150.726 17.43 150.726 20.1659V29.408H154.99V19.2985C154.99 14.9276 152.459 12.3919 148.495 12.3919C145.996 12.3919 144.597 13.3929 143.598 14.6941H143.331L142.965 12.7256H139.067V29.408Z" fill="var(--fill-0, #040506)"/>
<path id="Vector_4" d="M101.323 29.408H97.0594V12.7256H100.957L101.323 14.6941H101.589C102.589 13.3929 103.988 12.3919 106.487 12.3919C110.451 12.3919 112.982 14.9276 112.982 19.2985V29.408H108.718V20.1659C108.718 17.43 107.153 16.0954 105.154 16.0954C103.122 16.0954 101.323 17.3967 101.323 20.3661V29.408Z" fill="var(--fill-0, #040506)"/>
</g>
<defs>
<clipPath id="clip0_0_60">
<rect width="155.43" height="42.008" fill="white"/>
</clipPath>
</defs>
</svg>
