<svg width="156" height="54.0879" overflow="visible" style="display: block;" viewBox="0 0 156 54.0879" fill="none" xmlns="http://www.w3.org/2000/svg">
<g id="Group">
<g id="Group_2">
<path id="Vector" d="M3.28603 2.37628L33.2062 0.133464C36.8381 -0.211584 37.7894 0.0472019 40.1242 1.68618L49.7228 8.41461C51.2794 9.53602 51.7982 9.88107 51.7982 11.175V48.0089C51.7982 50.3379 50.9335 51.7181 47.9933 51.8907L13.2306 53.9609C10.9823 54.0472 9.94457 53.7884 8.8204 52.322L1.81596 43.2645C0.518847 41.5392 0 40.3315 0 38.8651V6.08554C0 4.18778 0.864745 2.5488 3.28603 2.37628Z" fill="var(--fill-0, white)"/>
<path id="Vector_2" fill-rule="evenodd" clip-rule="evenodd" d="M33.2062 0.133464L3.28603 2.37628C0.864745 2.5488 0 4.18778 0 6.08554V38.8651C0 40.3315 0.518847 41.6255 1.81596 43.2645L8.8204 52.4082C9.94457 53.8747 11.0687 54.2197 13.2306 54.0472L47.9933 51.9769C50.9335 51.8044 51.7982 50.4242 51.7982 48.0951V11.175C51.7982 9.96733 51.3659 9.62228 49.8958 8.58714C49.8093 8.50088 49.7228 8.50088 49.6364 8.41461L40.1242 1.77244C37.8758 0.0472019 36.9246 -0.125322 33.2062 0.133464ZM14.0089 10.5712C11.1552 10.7437 10.5499 10.8299 8.90687 9.44976L4.84257 6.25806C4.4102 5.82675 4.58315 5.30918 5.70732 5.22292L34.5033 3.15263C36.9246 2.98011 38.1353 3.75647 39.0865 4.53282L44.0155 8.06957C44.2749 8.15583 44.7938 8.75966 44.102 8.75966L14.3548 10.5712H14.0089ZM10.7228 47.7501V16.437C10.7228 15.0568 11.1552 14.453 12.3659 14.3667L46.5233 12.3827C47.6474 12.2964 48.1663 12.9865 48.1663 14.3667V45.421C48.1663 46.8012 47.9069 47.9226 46.0909 48.0089L13.4035 49.9066C11.5876 50.0792 10.7228 49.3891 10.7228 47.7501ZM42.9778 18.1622C43.1508 19.1111 42.9778 20.06 42.0266 20.1462L40.4701 20.4913V43.6095C39.0865 44.3859 37.8758 44.7309 36.8381 44.7309C35.1951 44.7309 34.7628 44.2133 33.4656 42.6606L23.0887 26.4434V42.0568L26.3747 42.8331C26.3747 42.8331 26.3747 44.7309 23.7805 44.7309L16.5166 45.1622C16.3437 44.7309 16.5166 43.6958 17.2084 43.5232L19.1109 43.0057V22.3028L16.5166 22.044C16.3437 21.0951 16.8625 19.7149 18.3326 19.6287L26.1153 19.1111L36.8381 35.5009V21.0089L34.071 20.6638C33.898 19.5424 34.6763 18.6798 35.714 18.5935L42.9778 18.1622Z" fill="var(--fill-0, black)"/>
</g>
<path id="Vector_3" d="M74.8005 38.3475V24.1143H75.0599L85.3503 38.3475H88.6364V17.3859H85.0044V31.6191H84.745L74.4546 17.3859H71.1685V38.3475H74.8005ZM98.7539 38.6063C103.51 38.6063 106.364 35.5009 106.364 30.3252C106.364 25.2357 103.424 22.044 98.7539 22.044C93.9978 22.044 91.1441 25.1494 91.1441 30.3252C91.0577 35.5009 93.9978 38.6063 98.7539 38.6063ZM98.7539 35.5871C96.2461 35.5871 94.7761 33.6894 94.7761 30.3252C94.7761 27.0472 96.2461 25.0632 98.7539 25.0632C101.262 25.0632 102.732 26.9609 102.732 30.3252C102.645 33.6894 101.262 35.5871 98.7539 35.5871ZM109.65 18.5935V22.5616H107.142V25.4082H109.65V34.0344C109.65 37.1399 111.12 38.3475 114.752 38.3475C115.443 38.3475 116.135 38.2613 116.654 38.175V35.4146C116.222 35.5009 115.962 35.5009 115.443 35.5009C113.973 35.5009 113.282 34.8108 113.282 33.2581V25.4945H116.654V22.6478H113.282V18.6798H109.65V18.5935ZM118.816 38.3475H122.448V22.4753H118.816V38.3475ZM120.632 19.8012C121.843 19.8012 122.794 18.8523 122.794 17.6446C122.794 16.437 121.843 15.4881 120.632 15.4881C119.421 15.4881 118.47 16.437 118.47 17.6446C118.47 18.8523 119.421 19.8012 120.632 19.8012ZM132.306 38.6063C137.062 38.6063 139.916 35.5009 139.916 30.3252C139.916 25.2357 136.976 22.044 132.306 22.044C127.55 22.044 124.696 25.1494 124.696 30.3252C124.61 35.5009 127.55 38.6063 132.306 38.6063ZM132.306 35.5871C129.798 35.5871 128.328 33.6894 128.328 30.3252C128.328 27.0472 129.798 25.0632 132.306 25.0632C134.814 25.0632 136.284 26.9609 136.284 30.3252C136.197 33.6894 134.814 35.5871 132.306 35.5871ZM142.078 38.3475H145.71V29.0312C145.71 26.7022 147.093 25.2357 149.169 25.2357C151.33 25.2357 152.368 26.4434 152.368 28.8587V38.2613H156V27.9961C156 24.2006 154.098 22.044 150.552 22.044C148.217 22.044 146.574 23.1654 145.796 24.8907H145.537V22.4753H142.078V38.3475Z" fill="var(--fill-0, black)"/>
</g>
</svg>
