<svg width="183.871" height="32.104" overflow="visible" style="display: block;" viewBox="0 0 183.871 32.104" fill="none" xmlns="http://www.w3.org/2000/svg">
<g id="PostHog Logo" clip-path="url(#clip0_0_160)">
<path id="Vector" d="M0 24.539C0 23.498 1.259 22.976 1.995 23.713L7.351 29.069C8.087 29.805 7.566 31.064 6.525 31.064H1.169C0.524 31.064 0 30.541 0 29.895V24.539ZM0 12.855C0 11.814 1.259 11.292 1.995 12.029L11.684 21.718V31.064L0.342 19.722C0.123 19.503 0 19.206 0 18.896V12.855ZM0 1.17104C0 0.13004 1.259 -0.39196 1.995 0.34504L11.684 10.034V19.38L0.343 8.03804C0.123 7.81904 0 7.52204 0 7.21204V1.17104Z" fill="var(--fill-0, #2949F4)"/>
<path id="Vector_2" d="M30.72 29.069C31.456 29.805 30.934 31.064 29.892 31.064H23.369L23.366 21.716L30.72 29.069ZM34.709 21.375C34.928 21.594 35.051 21.891 35.051 22.201V28.242C35.051 29.283 33.792 29.805 33.056 29.068L23.367 19.379V10.033L34.709 21.375ZM23.368 1.171C23.368 0.13 24.627 -0.392 25.363 0.345L34.709 9.691C34.928 9.91 35.051 10.207 35.051 10.517V16.558C35.051 17.599 33.792 18.121 33.056 17.384L23.71 8.038C23.491 7.819 23.368 7.522 23.368 7.212V1.171Z" fill="var(--fill-0, #EFBE4D)"/>
<path id="Vector_3" d="M19.035 29.069C19.771 29.805 19.25 31.064 18.209 31.064H11.684V21.718L19.035 29.069ZM23.026 21.375L23.368 21.724V31.064L12.026 19.723C11.807 19.504 11.684 19.207 11.684 18.897V10.035L23.026 21.375ZM11.684 1.171C11.684 0.13 12.943 -0.392 13.679 0.345L23.025 9.691L23.367 10.037V19.38L12.025 8.039C11.806 7.82 11.683 7.523 11.683 7.213V1.171H11.684Z" fill="var(--fill-0, #E25B28)"/>
<path id="Vector_4" d="M49.7 24.613L38.699 13.612C37.963 12.876 36.704 13.397 36.704 14.438V29.826C36.704 30.471 37.227 30.995 37.873 30.995H54.914C55.559 30.995 56.083 30.472 56.083 29.826V28.425C56.083 27.78 55.558 27.264 54.917 27.181C52.953 26.925 51.115 26.028 49.7 24.613ZM42.312 27.256C41.28 27.256 40.443 26.418 40.443 25.387C40.443 24.356 41.281 23.518 42.312 23.518C43.344 23.518 44.182 24.356 44.182 25.388C44.182 26.42 43.344 27.256 42.312 27.256Z" fill="var(--fill-0, black)"/>
<path id="Vector_5" d="M69.715 26.329H74.516V18.368H78.527C82.933 18.368 85.759 15.755 85.759 11.713C85.759 7.672 82.933 5.058 78.527 5.058H69.715V26.329ZM74.516 14.266V9.161H78.041C79.864 9.161 80.958 10.133 80.958 11.713C80.958 13.293 79.864 14.266 78.041 14.266H74.516Z" fill="var(--fill-0, black)"/>
<path id="Vector_6" d="M94.445 26.573C99.125 26.573 102.528 23.23 102.528 18.672C102.528 14.114 99.125 10.771 94.445 10.771C89.705 10.771 86.362 14.114 86.362 18.672C86.362 23.23 89.705 26.573 94.445 26.573ZM90.799 18.673C90.799 16.242 92.258 14.571 94.445 14.571C96.602 14.571 98.061 16.242 98.061 18.673C98.061 21.104 96.602 22.775 94.445 22.775C92.257 22.775 90.799 21.104 90.799 18.673Z" fill="var(--fill-0, black)"/>
<path id="Vector_7" d="M110.211 26.573C113.797 26.573 116.228 24.324 116.228 21.681C116.228 15.482 107.993 17.488 107.993 15.057C107.993 14.389 108.692 13.963 109.695 13.963C110.728 13.963 111.974 14.601 112.369 15.999L115.955 14.51C115.256 12.292 112.673 10.772 109.543 10.772C106.17 10.772 104.073 12.778 104.073 15.178C104.073 20.982 112.186 19.371 112.186 21.772C112.186 22.623 111.396 23.2 110.211 23.2C108.509 23.2 107.324 22.015 106.96 20.587L103.374 21.985C104.164 24.294 106.473 26.573 110.211 26.573Z" fill="var(--fill-0, black)"/>
<path id="Vector_8" d="M127.778 26.177L127.474 22.318C126.957 22.591 126.289 22.683 125.742 22.683C124.648 22.683 123.919 21.893 123.919 20.526V14.722H127.626V11.015H123.919V6.579H119.452V11.015H117.021V14.722H119.452V21.103C119.452 24.81 121.974 26.573 125.286 26.573C126.198 26.573 127.048 26.42 127.778 26.177Z" fill="var(--fill-0, black)"/>
<path id="Vector_9" d="M143.353 5.059V13.324H134.905V5.059H130.104V26.33H134.905V17.427H143.353V26.33H148.185V5.059H143.354H143.353Z" fill="var(--fill-0, black)"/>
<path id="Vector_10" d="M158.841 26.573C163.521 26.573 166.924 23.23 166.924 18.672C166.924 14.114 163.521 10.771 158.841 10.771C154.101 10.771 150.758 14.114 150.758 18.672C150.758 23.23 154.101 26.573 158.841 26.573ZM155.194 18.673C155.194 16.242 156.653 14.571 158.84 14.571C160.997 14.571 162.456 16.242 162.456 18.673C162.456 21.104 160.997 22.775 158.84 22.775C156.652 22.775 155.194 21.104 155.194 18.673Z" fill="var(--fill-0, black)"/>
<path id="Vector_11" d="M175.545 25.844C177.216 25.844 178.705 25.267 179.495 24.264V25.723C179.495 27.425 178.128 28.61 176.031 28.61C174.542 28.61 173.235 27.881 173.023 26.635L168.951 27.273C169.498 30.16 172.445 32.105 176.031 32.105C180.741 32.105 183.871 29.34 183.871 25.237V11.016H179.465V12.323C178.645 11.381 177.247 10.773 175.454 10.773C171.2 10.773 168.526 13.69 168.526 18.309C168.526 22.928 171.2 25.844 175.545 25.844ZM172.871 18.308C172.871 16.029 174.208 14.57 176.274 14.57C178.371 14.57 179.708 16.029 179.708 18.308C179.708 20.587 178.371 22.046 176.274 22.046C174.208 22.046 172.871 20.587 172.871 18.308Z" fill="var(--fill-0, black)"/>
</g>
<defs>
<clipPath id="clip0_0_160">
<rect width="183.871" height="32.104" fill="white"/>
</clipPath>
</defs>
</svg>
