<svg width="179.758" height="41.4224" overflow="visible" style="display: block;" viewBox="0 0 179.758 41.4224" fill="none" xmlns="http://www.w3.org/2000/svg">
<g id="Railway Logo" clip-path="url(#clip0_0_57)">
<path id="Vector" d="M0.19254 17.725C0.0936271 18.4166 0.0294472 19.1128 0 19.8104H31.4632C31.353 19.596 31.2057 19.4019 31.057 19.2132C25.678 12.2636 22.7846 12.8662 18.6454 12.6902C17.2651 12.6336 16.3296 12.611 10.8366 12.611C7.89639 12.611 4.70023 12.6185 1.58788 12.6268C1.18468 13.7141 0.796585 14.7682 0.607066 15.6259H16.7298V17.7257L0.19254 17.725ZM31.7109 21.9125H0.0158562C0.0490787 22.4728 0.101178 23.0255 0.176683 23.5714H29.4389C30.7437 23.5714 31.4738 22.8314 31.7109 21.9125ZM1.8212 29.2992C1.8212 29.2992 6.67244 41.211 20.6893 41.4224C29.0674 41.4224 36.2661 36.4466 39.5363 29.2992H1.8212Z" fill="var(--fill-0, #100F13)"/>
<path id="Vector_2" d="M20.6894 1.58845e-06C12.9425 1.58845e-06 6.20133 4.25399 2.64199 10.5421C5.42362 10.5361 10.8419 10.533 10.8419 10.533H10.8434V10.5308C17.2471 10.5308 17.4849 10.5595 18.736 10.6116L19.5107 10.6403C22.2085 10.7301 25.5255 11.0201 28.1342 12.9938C29.5507 14.0644 31.5954 16.4278 32.8148 18.1116C33.9421 19.6692 34.266 21.4595 33.4997 23.1742C32.7944 24.7508 31.2768 25.6908 29.439 25.6908H0.675065C0.675065 25.6908 0.846463 26.4164 1.10318 27.2175H40.3669C41.0638 25.1215 41.4202 22.9273 41.4225 20.7188C41.4225 9.27663 32.1398 -0.00150853 20.6894 -0.00150853V1.58845e-06ZM62.259 29.3604H67.145V21.1688H70.7104L75.0882 29.3604H80.4816L75.5729 20.379C78.202 19.2509 79.6578 16.9601 79.6578 13.8009C79.6578 9.20868 76.6232 6.25263 71.3763 6.25263H62.259V29.3604ZM67.145 17.2425V10.2469H70.4393C73.2602 10.2469 74.6253 11.4995 74.6253 13.8009C74.6253 16.1023 73.2602 17.2425 70.462 17.2425H67.145ZM87.9619 29.6881C90.5231 29.6881 92.1812 28.5714 93.0276 26.9578H93.1627V29.3611H97.721V17.6721C97.721 13.5427 94.2228 11.8053 90.3645 11.8053C86.2124 11.8053 83.4822 13.7911 82.8162 16.9503L87.262 17.3112C87.5889 16.1605 88.6158 15.3141 90.3419 15.3141C91.9773 15.3141 92.9143 16.1378 92.9143 17.5596V17.6276C92.9143 18.7443 91.7296 18.8915 88.717 19.1845C85.2875 19.5001 82.2069 20.6516 82.2069 24.5212C82.2069 27.9515 84.6555 29.6888 87.9612 29.6888L87.9619 29.6881ZM89.3384 26.3704C87.86 26.3704 86.7991 25.6818 86.7991 24.3619C86.7991 23.0081 87.9166 22.3421 89.6087 22.105C90.6582 21.9586 92.373 21.7102 92.9483 21.3266V23.1659C92.9483 24.9826 91.4488 26.3704 89.3384 26.3704ZM101.451 29.3604H106.258V12.0296H101.451V29.3604ZM103.865 9.79611C105.298 9.79611 106.471 8.70128 106.471 7.35879C106.471 6.02762 105.298 4.93279 103.865 4.93279C102.443 4.93279 101.27 6.02762 101.27 7.35879C101.27 8.70128 102.443 9.79611 103.865 9.79611ZM114.914 6.25263H110.108V29.3604H114.914V6.25263ZM122.183 29.3604H127.26L130.239 18.4611H130.453L133.432 29.3604H138.521L143.226 12.0296H138.375L135.734 23.6061H135.588L132.745 12.0296H127.972L125.174 23.6733H125.016L122.331 12.0296H117.467L122.183 29.3604ZM150.732 29.6881C153.293 29.6881 154.952 28.5714 155.798 26.9578H155.933V29.3611H160.492V17.6721C160.492 13.5427 156.994 11.8053 153.135 11.8053C148.983 11.8053 146.252 13.7911 145.587 16.9503L150.032 17.3112C150.359 16.1605 151.386 15.3141 153.112 15.3141C154.748 15.3141 155.685 16.1378 155.685 17.5596V17.6276C155.685 18.7443 154.501 18.8915 151.488 19.1845C148.058 19.5001 144.977 20.6516 144.977 24.5212C144.977 27.9515 147.426 29.6888 150.731 29.6888L150.732 29.6881ZM152.109 26.3704C150.63 26.3704 149.569 25.6818 149.569 24.3619C149.569 23.0081 150.687 22.3421 152.379 22.105C153.428 21.9586 155.143 21.7102 155.718 21.3266V23.1659C155.718 24.9826 154.218 26.3704 152.108 26.3704H152.109ZM166.568 35.8599C170.145 35.8599 172.04 34.0319 173.022 31.2337L179.758 12.053L174.669 12.0303L171.048 24.7576H170.867L167.279 12.0303H162.224L168.441 29.8572L168.16 30.5904C167.528 32.2153 166.32 32.2938 164.628 31.7751L163.545 35.3631C164.232 35.6568 165.35 35.8599 166.569 35.8599H166.568Z" fill="var(--fill-0, #100F13)"/>
</g>
<defs>
<clipPath id="clip0_0_57">
<rect width="179.758" height="41.4224" fill="white"/>
</clipPath>
</defs>
</svg>
