<svg width="155.197" height="36.691" overflow="visible" style="display: block;" viewBox="0 0 155.197 36.691" fill="none" xmlns="http://www.w3.org/2000/svg">
<g id="Replit Logo" clip-path="url(#clip0_0_129)">
<path id="Vector" d="M146.13 4.822C146.527 4.822 146.836 5.109 146.836 5.484V9.72H154.491C154.889 9.72 155.198 10.007 155.198 10.382V12.566C155.198 12.919 154.889 13.228 154.491 13.25H146.836V19.692C146.836 22.384 147.807 23.465 150.542 23.465H153.983C154.38 23.465 154.689 23.752 154.689 24.127V26.311C154.689 26.664 154.38 26.973 153.983 26.973H149.881C144.85 26.973 142.512 24.679 142.512 19.715V13.229H137.99C137.593 13.229 137.284 12.942 137.284 12.567V10.383C137.284 10.03 137.593 9.721 137.99 9.721H142.512V5.485C142.512 5.132 142.821 4.823 143.218 4.823H146.129L146.13 4.822ZM132.011 9.72C132.408 9.72 132.717 10.007 132.717 10.382V23.464H138.121C138.518 23.464 138.827 23.751 138.827 24.126V26.31C138.827 26.663 138.518 26.972 138.121 26.972H123.12C122.723 26.972 122.414 26.685 122.414 26.31V24.126C122.414 23.773 122.723 23.464 123.12 23.464H128.393V13.228H123.12C122.723 13.228 122.414 12.941 122.414 12.566V10.382C122.414 10.029 122.723 9.72 123.12 9.72H132.01H132.011ZM132.188 3.058C132.563 3.058 132.872 3.345 132.894 3.72V6.522C132.894 6.875 132.585 7.184 132.188 7.184H128.217C127.82 7.184 127.511 6.897 127.511 6.522V3.72C127.511 3.367 127.82 3.058 128.217 3.058H132.188ZM119.084 23.464H114.584V3.719C114.584 3.344 114.275 3.057 113.878 3.057H105.054C104.657 3.057 104.348 3.366 104.348 3.719V5.903C104.348 6.278 104.657 6.565 105.054 6.565H110.26V23.464H104.414C104.017 23.464 103.708 23.773 103.708 24.126V26.31C103.708 26.685 104.017 26.972 104.414 26.972H119.084C119.481 26.972 119.79 26.663 119.79 26.31V24.126C119.79 23.751 119.481 23.464 119.084 23.464ZM95.126 9.389C93.626 9.389 92.545 9.72 91.707 10.514L90.67 11.507H89.721L89.368 10.228C89.28 9.941 89.015 9.721 88.684 9.721H86.699C86.302 9.721 85.993 10.03 85.993 10.383V32.973C85.993 33.348 86.302 33.635 86.699 33.635H89.611C90.008 33.635 90.317 33.326 90.317 32.973V28.075L89.942 25.45L90.913 25.229L91.95 26.222C92.766 26.972 93.759 27.347 95.237 27.347C99.517 27.347 102.098 24.391 102.098 18.368C102.076 12.345 99.516 9.389 95.126 9.389ZM93.692 23.729C91.508 23.729 90.295 22.604 90.295 20.464V16.228C90.295 14.088 91.486 12.963 93.692 12.963C96.362 12.963 97.575 14.64 97.575 18.324C97.553 22.052 96.362 23.729 93.692 23.729ZM73.661 9.389C68.102 9.389 65.123 12.345 65.123 18.346C65.123 24.347 68.079 27.325 73.55 27.325C77.785 27.325 80.521 25.56 81.249 22.538C81.359 22.119 81.006 21.722 80.565 21.722H77.918C77.631 21.722 77.367 21.898 77.256 22.163C76.793 23.465 75.469 24.082 73.682 24.082C70.902 24.082 69.579 22.56 69.402 19.008H81.469C82.131 12.368 79.373 9.39 73.659 9.39L73.661 9.389ZM69.536 16.316C69.955 13.713 71.257 12.499 73.639 12.499C76.176 12.499 77.367 13.845 77.433 16.316H69.536ZM56.52 10.492L55.527 11.485H54.534L54.225 10.228C54.159 9.919 53.872 9.721 53.541 9.721H47.188C46.791 9.721 46.482 10.03 46.482 10.383V12.567C46.482 12.942 46.791 13.229 47.188 13.229H50.938V23.465H46.57C46.173 23.465 45.864 23.774 45.864 24.127V26.311C45.864 26.686 46.173 26.973 46.57 26.973H60.314C60.711 26.973 61.02 26.664 61.02 26.311V24.127C61.02 23.752 60.711 23.465 60.314 23.465H55.262V16.229C55.262 14.2 56.453 13.141 58.792 13.141H62.586C62.983 13.141 63.292 12.832 63.292 12.479V10.074C63.292 9.699 62.983 9.412 62.586 9.412H60.336C58.682 9.39 57.38 9.699 56.52 10.493V10.492Z" fill="var(--fill-0, black)"/>
<path id="Vector_2" d="M0 2.293C0 1.027 1.027 0 2.293 0H12.995C14.261 0 15.288 1.027 15.288 2.293V12.23H2.293C1.027 12.231 0 11.204 0 9.937V2.293ZM15.288 12.231H28.283C29.549 12.231 30.576 13.258 30.576 14.524V22.168C30.576 23.434 29.549 24.461 28.283 24.461H15.288V12.231ZM0 26.754C0 25.488 1.027 24.461 2.293 24.461H15.288V34.398C15.288 35.664 14.261 36.691 12.995 36.691H2.293C1.027 36.691 0 35.664 0 34.398V26.754Z" fill="var(--fill-0, #F26207)"/>
</g>
<defs>
<clipPath id="clip0_0_129">
<rect width="155.197" height="36.691" fill="white"/>
</clipPath>
</defs>
</svg>
