<svg width="237" height="46" overflow="visible" style="display: block;" viewBox="0 0 237 46" fill="none" xmlns="http://www.w3.org/2000/svg">
<g id="Supabase Logo" clip-path="url(#clip0_0_145)">
<path id="Vector" d="M61.7575 27.177C62.0018 29.4571 64.0801 33.366 70.1116 33.366C75.3684 33.366 77.8955 30.0272 77.8955 26.7698C77.8955 23.8382 75.8983 21.4359 71.9456 20.6215L69.0926 20.0108C67.9925 19.8072 67.259 19.1965 67.259 18.2192C67.259 17.0791 68.4 16.2241 69.8265 16.2241C72.1084 16.2241 72.9642 17.7306 73.1273 18.9115L77.6507 17.8935C77.4064 15.7355 75.4908 12.1117 69.7857 12.1117C65.4658 12.1117 62.2873 15.0841 62.2873 18.6671C62.2873 21.4765 64.0394 23.7975 67.9109 24.6525L70.5599 25.2633C72.1084 25.589 72.7198 26.322 72.7198 27.2177C72.7198 28.2764 71.864 29.2128 70.0708 29.2128C67.7073 29.2128 66.5252 27.747 66.4032 26.159L61.7575 27.177Z" fill="var(--fill-0, #1F1F1F)"/>
<path id="Vector_2" d="M95.2165 32.7552H100.392C100.311 32.063 100.188 30.6787 100.188 29.1314V12.7224H94.7678V24.3675C94.7678 26.6884 93.3825 28.317 90.9782 28.317C88.4516 28.317 87.3102 26.5255 87.3102 24.286V12.7224H81.8902V25.3854C81.8902 29.7421 84.6612 33.2845 89.5109 33.2845C91.6297 33.2845 93.9536 32.4702 95.0537 30.5972C95.0537 31.4115 95.1349 32.348 95.2165 32.7552Z" fill="var(--fill-0, #1F1F1F)"/>
<path id="Vector_3" d="M111.392 40.4915V30.8009C112.37 32.1445 114.408 33.2439 117.18 33.2439C122.844 33.2439 126.633 28.7649 126.633 22.6981C126.633 16.7535 123.251 12.2746 117.383 12.2746C114.368 12.2746 112.126 13.6182 111.23 15.1655V12.7225H105.973V40.4915H111.392ZM121.295 22.7389C121.295 26.322 119.095 28.3985 116.323 28.3985C113.553 28.3985 111.311 26.2813 111.311 22.7389C111.311 19.1965 113.553 17.1199 116.323 17.1199C119.095 17.1199 121.295 19.1965 121.295 22.7389Z" fill="var(--fill-0, #1F1F1F)"/>
<path id="Vector_4" d="M129.703 27.2991C129.703 30.4344 132.311 33.3253 136.59 33.3253C139.564 33.3253 141.48 31.9409 142.499 30.3529C142.499 31.1265 142.58 32.2258 142.703 32.7552H147.674C147.552 32.063 147.43 30.6379 147.43 29.5793V19.7257C147.43 15.6948 145.066 12.1117 138.709 12.1117C133.33 12.1117 130.436 15.5726 130.111 18.7078L134.919 19.7257C135.082 17.9749 136.386 16.4684 138.749 16.4684C141.032 16.4684 142.132 17.6492 142.132 19.0743C142.132 19.7665 141.766 20.3366 140.625 20.4994L135.694 21.2323C132.352 21.7209 129.703 23.716 129.703 27.2991ZM137.731 29.2943C135.979 29.2943 135.123 28.1542 135.123 26.9734C135.123 25.4262 136.223 24.6525 137.609 24.449L142.132 23.7568V24.6525C142.132 28.1949 140.013 29.2943 137.731 29.2943Z" fill="var(--fill-0, #1F1F1F)"/>
<path id="Vector_5" d="M158.151 32.7553V30.3122C159.21 32.0224 161.329 33.2439 164.1 33.2439C169.806 33.2439 173.555 28.7243 173.555 22.6574C173.555 16.7127 170.173 12.1932 164.304 12.1932C161.329 12.1932 159.129 13.4961 158.232 14.9211V3.27612H152.894V32.7553H158.151ZM168.135 22.6981C168.135 26.3627 165.934 28.3985 163.163 28.3985C160.433 28.3985 158.151 26.322 158.151 22.6981C158.151 19.0336 160.433 17.0385 163.163 17.0385C165.934 17.0385 168.135 19.0336 168.135 22.6981Z" fill="var(--fill-0, #1F1F1F)"/>
<path id="Vector_6" d="M176.624 27.2991C176.624 30.4344 179.232 33.3253 183.511 33.3253C186.486 33.3253 188.402 31.9409 189.42 30.3529C189.42 31.1265 189.502 32.2258 189.624 32.7552H194.595C194.474 32.063 194.351 30.6379 194.351 29.5793V19.7257C194.351 15.6948 191.988 12.1117 185.63 12.1117C180.251 12.1117 177.358 15.5726 177.032 18.7078L181.84 19.7257C182.003 17.9749 183.307 16.4684 185.671 16.4684C187.953 16.4684 189.053 17.6492 189.053 19.0743C189.053 19.7665 188.687 20.3366 187.545 20.4994L182.615 21.2323C179.273 21.7209 176.624 23.716 176.624 27.2991ZM184.652 29.2943C182.9 29.2943 182.044 28.1542 182.044 26.9734C182.044 25.4262 183.144 24.6525 184.53 24.449L189.053 23.7568V24.6525C189.053 28.1949 186.934 29.2943 184.652 29.2943Z" fill="var(--fill-0, #1F1F1F)"/>
<path id="Vector_7" d="M198.103 27.177C198.347 29.4571 200.426 33.366 206.457 33.366C211.714 33.366 214.24 30.0272 214.24 26.7698C214.24 23.8382 212.244 21.4359 208.291 20.6215L205.438 20.0108C204.338 19.8072 203.605 19.1965 203.605 18.2192C203.605 17.0791 204.745 16.2241 206.172 16.2241C208.454 16.2241 209.31 17.7306 209.473 18.9115L213.996 17.8935C213.752 15.7355 211.836 12.1117 206.131 12.1117C201.811 12.1117 198.633 15.0841 198.633 18.6671C198.633 21.4765 200.385 23.7975 204.256 24.6525L206.905 25.2633C208.454 25.589 209.065 26.322 209.065 27.2177C209.065 28.2764 208.21 29.2128 206.416 29.2128C204.053 29.2128 202.871 27.747 202.749 26.159L198.103 27.177Z" fill="var(--fill-0, #1F1F1F)"/>
<path id="Vector_8" d="M222.472 20.4586C222.594 18.6264 224.143 16.5091 226.955 16.5091C230.052 16.5091 231.356 18.4635 231.438 20.4586H222.472ZM231.968 25.6705C231.316 27.462 229.93 28.7242 227.403 28.7242C224.714 28.7242 222.472 26.8105 222.35 24.164H236.695C236.695 24.0824 236.776 23.2681 236.776 22.4945C236.776 16.0612 233.068 12.1117 226.873 12.1117C221.739 12.1117 217.011 16.2648 217.011 22.6574C217.011 29.4164 221.861 33.366 227.363 33.366C232.293 33.366 235.472 30.475 236.491 27.0141L231.968 25.6705Z" fill="var(--fill-0, #1F1F1F)"/>
<path id="Vector_9" d="M25.9874 44.8944C24.821 46.3603 22.4559 45.5571 22.4278 43.6853L22.0169 16.3087H40.4628C43.8038 16.3087 45.6672 20.1597 43.5896 22.771L25.9874 44.8944Z" fill="url(#paint0_linear_0_145)"/>
<path id="Vector_10" d="M25.9874 44.8944C24.821 46.3603 22.4559 45.5571 22.4278 43.6853L22.0169 16.3087H40.4628C43.8038 16.3087 45.6672 20.1597 43.5896 22.771L25.9874 44.8944Z" fill="url(#paint1_linear_0_145)" fill-opacity="0.2"/>
<path id="Vector_11" d="M18.4856 0.843074C19.652 -0.622983 22.0171 0.180311 22.0452 2.05209L22.2253 29.4287H4.01029C0.669139 29.4287 -1.19428 25.5777 0.883345 22.9664L18.4856 0.843074Z" fill="var(--fill-0, #3ECF8E)"/>
</g>
<defs>
<linearGradient id="paint0_linear_0_145" x1="22.0169" y1="22.3788" x2="38.4008" y2="29.2644" gradientUnits="userSpaceOnUse">
<stop stop-color="#249361"/>
<stop offset="1" stop-color="#3ECF8E"/>
</linearGradient>
<linearGradient id="paint1_linear_0_145" x1="14.7486" y1="12.4477" x2="22.2012" y2="26.5057" gradientUnits="userSpaceOnUse">
<stop/>
<stop offset="1" stop-opacity="0"/>
</linearGradient>
<clipPath id="clip0_0_145">
<rect width="237" height="46" fill="white"/>
</clipPath>
</defs>
</svg>
