<svg width="158.001" height="36.05" overflow="visible" style="display: block;" viewBox="0 0 158.001 36.05" fill="none" xmlns="http://www.w3.org/2000/svg">
<g id="Warp Logo" clip-path="url(#clip0_0_72)">
<path id="Vector" d="M21.234 0H36.894C39.429 0 41.484 2.123 41.484 4.743V23.157C41.484 25.776 39.429 27.9 36.894 27.9H14.484L21.234 0Z" fill="var(--fill-0, black)"/>
<path id="Vector_2" d="M17.167 5.286H4.551C2.037 5.286 0 7.409 0 10.029V28.444C0 31.063 2.037 33.187 4.551 33.187H20.079L20.701 30.591H11.097L17.167 5.286ZM60.29 27.89L53.386 5.294H57.287L62.174 22.555L67.464 5.294H71.14L76.43 22.555L81.272 5.294H85.262L78.313 27.89H74.592L69.302 10.719L64.011 27.89H60.29ZM102.462 13.185C102.462 10.092 100.265 8.119 96.947 8.119C93.854 8.119 91.657 9.957 91.343 13.006L87.801 12.334C88.473 7.851 92.195 4.937 96.947 4.937C102.417 4.937 106.227 8.165 106.227 13.41V27.891H102.461V24.035C101.161 26.635 98.202 28.249 94.929 28.249C90.401 28.249 87.308 25.469 87.308 21.569C87.308 17.22 90.85 14.844 98.068 14.127L102.462 13.634V13.185ZM91.119 21.523C91.119 23.63 92.912 25.11 95.513 25.11C99.907 25.11 102.462 22.196 102.462 17.668V16.592L98.068 17.085C93.495 17.579 91.119 19.146 91.119 21.523ZM131.881 12.961L128.07 13.678C127.89 10.315 125.784 8.387 122.376 8.387C118.206 8.387 115.517 12.153 115.517 18.206V27.89H111.706V5.294H115.517V9.733C117.176 6.505 119.955 4.936 123.273 4.936C128.295 4.936 131.702 8.074 131.881 12.961ZM135.943 36.05V5.293H139.754V8.566C140.965 6.504 143.924 4.934 147.196 4.934C154.145 4.934 158.001 9.955 158.001 16.59C158.001 23.225 154.056 28.247 147.107 28.247C144.238 28.247 141.278 26.813 139.754 24.75V36.047H135.943V36.05ZM146.748 24.841C151.231 24.841 154.145 21.568 154.145 16.592C154.145 11.616 151.231 8.343 146.748 8.343C142.354 8.343 139.44 11.616 139.44 16.592C139.44 21.568 142.354 24.841 146.748 24.841Z" fill="var(--fill-0, black)"/>
</g>
<defs>
<clipPath id="clip0_0_72">
<rect width="158.001" height="36.05" fill="white"/>
</clipPath>
</defs>
</svg>
